<svg enable-background="new 15 15 70 70" height="70" viewBox="15 15 70 70" width="70" xmlns="http://www.w3.org/2000/svg"><path d="m71.997 51.999h-3.998c-1.104 0-2-.896-2-1.999 0-1.104.896-2 2-2h3.998c1.104 0 2 .896 2 2s-.893 1.999-2 1.999zm-7.854-13.311c-.781.781-2.05.781-2.828 0-.78-.781-.78-2.047 0-2.828l2.828-2.828c.778-.781 2.047-.781 2.828 0 .778.781.778 2.047 0 2.828zm-14.142 23.31c-6.627 0-12-5.372-12-11.998 0-6.627 5.372-11.999 12-11.999 6.627 0 11.998 5.372 11.998 11.999 0 6.626-5.371 11.998-11.998 11.998zm0-19.997c-4.418 0-8 3.581-8 7.999 0 4.417 3.583 7.999 8 7.999s7.998-3.582 7.998-7.999c0-4.418-3.58-7.999-7.998-7.999zm0-7.999c-1.105 0-2-.896-2-2v-3.999c0-1.104.895-2 2-2 1.104 0 2 .896 2 2v3.999c0 1.104-.897 2-2 2zm-14.141 4.686-2.828-2.828c-.781-.781-.781-2.047 0-2.828s2.047-.781 2.828 0l2.828 2.828c.781.781.781 2.047 0 2.828s-2.047.781-2.828 0zm-1.858 11.312c0 1.104-.896 1.999-2 1.999h-4c-1.104 0-1.999-.896-1.999-1.999 0-1.104.896-2 1.999-2h4c1.105 0 2 .896 2 2zm1.858 11.312c.781-.78 2.047-.78 2.828 0 .781.779.781 2.047 0 2.828l-2.828 2.826c-.781.781-2.047.781-2.828 0-.781-.779-.781-2.047 0-2.826zm14.141 4.686c1.104 0 2 .895 2 1.999v4c0 1.104-.896 2-2 2-1.105 0-2-.896-2-2v-4c0-1.104.895-1.999 2-1.999zm14.142-4.686 2.828 2.828c.778.779.778 2.047 0 2.826-.781.781-2.05.781-2.828 0l-2.828-2.826c-.78-.781-.78-2.049 0-2.828.778-.781 2.044-.781 2.828 0z" fill="#ffd550"/></svg>