<svg enable-background="new 15 15 70 70" height="70" viewBox="15 15 70 70" width="70" xmlns="http://www.w3.org/2000/svg"><circle cx="72.997" cy="69.639" fill="#fff" r="2"/><path d="m63.998 64.941v-4.381c2.389-1.385 4-3.961 4-6.92 0-4.417-3.581-8-7.999-8-1.601 0-3.083.48-4.334 1.291-1.231-5.317-5.973-9.29-11.664-9.29-6.627 0-11.999 5.372-11.999 11.998 0 3.548 1.551 6.728 4 8.923v4.916c-4.777-2.768-7.999-7.922-7.999-13.839 0-8.835 7.162-15.997 15.998-15.997 6.004 0 11.229 3.311 13.965 8.203.664-.113 1.337-.205 2.033-.205 6.626 0 11.998 5.372 11.998 12 0 5.223-3.343 9.653-7.999 11.301z" fill="#bebebe"/><g fill="#fff"><circle cx="31.003" cy="74.639" r="2"/><path d="m41.001 55.641c0-1.104-.104-2 1-2s1 .896 1 2v23.998h-2c0-2.209-1.79-4-3.999-4v-2c1.543 0 2.937.602 3.999 1.557z"/><path d="m50 69.639c-1.104 0-1-.895-1-2v-7.998c0-1.104-.104-2 1-2s1 .896 1 2v7.998c0 1.105.104 2-1 2z"/><circle cx="50" cy="75.639" r="2"/><path d="m57.999 53.641c1.104 0 1 .896 1 2v18.018c1.823-2.436 4.724-4.02 7.999-4.02v2c-4.418 0-7.999 3.582-7.999 8h-2c0-.271.021-.541.041-.807-.054-.334-.041-.744-.041-1.193v-21.998c0-1.104-.104-2 1-2z"/></g></svg>