<svg enable-background="new 0 0 24 24" height="24" viewBox="0 0 24 24" width="24" xmlns="http://www.w3.org/2000/svg"><g fill="#7cd5ff"><path d="m15 19c-.553 0-1-.447-1-1s.447-1 1-1c.552 0 1-.448 1-1s-.448-1-1-1h-11c-1.654 0-3-1.346-3-3s1.346-3 3-3h11c.268 0 .519-.104.707-.292.189-.19.293-.441.293-.708 0-.551-.448-1-1-1-.553 0-1-.448-1-1s.447-1 1-1c1.654 0 3 1.346 3 3 0 .801-.312 1.555-.879 2.121s-1.319.879-2.12.879c-.001 0-.001 0-.001 0h-11c-.551 0-1 .449-1 1s.449 1 1 1h11c1.654 0 3 1.346 3 3s-1.346 3-3 3z"/><path d="m20.001 13c-.001 0-.001 0 0 0h-1.501c-.553 0-1-.448-1-1s.447-1 1-1h1.5c.268 0 .519-.104.707-.292.189-.189.293-.44.293-.708 0-.551-.448-1-1-1-.553 0-1-.448-1-1s.447-1 1-1c1.654 0 3 1.346 3 3 0 .802-.312 1.555-.879 2.122s-1.319.878-2.12.878z"/></g></svg>