<svg enable-background="new 15 15 70 70" height="70" viewBox="15 15 70 70" width="70" xmlns="http://www.w3.org/2000/svg"><path d="m72.941 38.642c0-.756-.078-1.491-.211-2.208-.576.132-1.173.208-1.788.208-4.418 0-8-3.581-8-7.999 0-.615.076-1.212.208-1.788-.716-.134-1.452-.212-2.207-.212-5.573 0-10.245 3.805-11.594 8.955 1.627.19 2.824.699 3.704 1.746.525-3.211 2.961-5.775 6.103-6.494.903 4.854 4.726 8.676 9.579 9.58-.469 2.054-1.729 3.803-3.441 4.917.989 1.115 1.759 2.178 2.651 3.025 3.022-2.179 4.996-5.72 4.996-9.73z" fill="#fffdc2"/><path d="m44 65.639c-8.835 0-15.998-7.162-15.998-15.998s7.163-15.998 15.998-15.998c6.004 0 11.229 3.312 13.965 8.203.664-.113 1.338-.205 2.033-.205 6.627 0 11.998 5.373 11.998 12 0 6.625-5.371 11.998-11.998 11.998-2.774 0-12.799 0-15.998 0zm15.999-4c4.418 0 8-3.582 8-7.998 0-4.417-3.582-8-8-8-1.602 0-3.082.481-4.334 1.291-1.23-5.316-5.975-9.29-11.666-9.29-6.626 0-11.998 5.372-11.998 11.999 0 6.626 5.372 11.998 11.998 11.998z" fill="#bebebe"/></svg>