<svg enable-background="new 15 15 70 70" height="70" viewBox="15 15 70 70" width="70" xmlns="http://www.w3.org/2000/svg"><g fill="#ffd550"><path d="m79.941 43.641h-3.998c-1.104 0-2-.896-2-1.999 0-1.104.896-2 2-2h3.998c1.104 0 2 .896 2 2 0 1.103-.893 1.999-2 1.999z"/><path d="m72.087 30.33c-.781.781-2.05.781-2.828 0-.78-.781-.78-2.047 0-2.828l2.828-2.828c.778-.781 2.047-.781 2.828 0 .778.781.778 2.047 0 2.828z"/><path d="m57.945 29.643c-4.545 0-8.498 2.526-10.534 6.25 1.247.478 2.494.757 3.741 1.539 1.411-2.271 3.922-3.789 6.793-3.789 4.418 0 7.998 3.581 7.998 7.999 0 1.175-.26 2.288-.715 3.293 1.148.792 1.992 1.891 3.062 2.763 1.044-1.779 1.652-3.844 1.652-6.056.001-6.627-5.37-11.999-11.997-11.999z"/><path d="m57.945 25.644c-1.105 0-2-.896-2-2v-3.999c0-1.104.895-2 2-2 1.104 0 2 .896 2 2v3.999c0 1.104-.897 2-2 2z"/><path d="m43.804 30.33-2.828-2.828c-.781-.781-.781-2.047 0-2.828s2.047-.781 2.828 0l2.828 2.828c.781.781.781 2.047 0 2.828s-2.047.78-2.828 0z"/></g><path d="m59.999 41.641c-.695 0-1.369.092-2.033.205-2.736-4.891-7.961-8.203-13.965-8.203-8.835 0-15.998 7.162-15.998 15.998 0 8.835 7.163 15.998 15.998 15.998h15.999c6.627 0 11.998-5.373 11.998-11.998-.001-6.627-5.372-12-11.999-12zm-7.499-3.141c-2-2-4-2-6-3 2 1 4 1 6 3zm7.499 23.139c-3.02 0-12.381 0-16 0-6.626 0-11.998-5.371-11.998-11.998s5.372-11.998 11.998-11.998c5.691 0 10.435 3.974 11.666 9.289 1.252-.81 2.732-1.291 4.334-1.291 4.418 0 8 3.584 8 8s-3.582 7.998-8 7.998zm4.501-17.139c2 1 3 3 5 4-2-1-3-3-5-4z" fill="#bebebe"/></svg>