<svg enable-background="new 15 15 70 70" height="70" viewBox="15 15 70 70" width="70" xmlns="http://www.w3.org/2000/svg"><path d="m63.943 64.941v-4.381c2.387-1.387 3.998-3.961 3.998-6.92 0-4.418-3.58-8-7.998-8-1.604 0-3.084.481-4.334 1.291-1.232-5.316-5.975-9.29-11.666-9.29-6.627 0-11.998 5.372-11.998 11.999 0 3.549 1.549 6.729 3.998 8.926v4.914c-4.777-2.77-7.998-7.922-7.998-13.84 0-8.836 7.162-15.998 15.998-15.998 6.004 0 11.229 3.312 13.965 8.203.664-.113 1.336-.205 2.032-.205 6.627 0 11.998 5.373 11.998 12 .003 5.221-3.338 9.653-7.995 11.301z" fill="#bebebe"/><g fill="#7cd5ff"><path d="m41.945 53.641c1.104 0 2 .896 2 2v3.998c0 1.105-.896 2-2 2-1.105 0-2-.895-2-2v-3.998c0-1.106.895-2 2-2z"/><path d="m41.945 65.639c1.104 0 2 .896 2 2v3.998c0 1.105-.896 2-2 2-1.105 0-2-.895-2-2v-3.998c0-1.106.895-2 2-2z"/><path d="m49.943 57.639c1.105 0 2 .896 2 2v4c0 1.104-.896 2-2 2s-1.998-.896-1.998-2v-4c0-1.104.895-2 1.998-2z"/><path d="m49.943 69.639c1.105 0 2 .896 2 1.998v4c0 1.105-.896 2-2 2s-1.998-.895-1.998-2v-4c0-1.104.895-1.998 1.998-1.998z"/><path d="m57.943 53.641c1.104 0 2 .896 2 2v3.998c0 1.105-.896 2-2 2-1.105 0-2-.895-2-2v-3.998c0-1.106.895-2 2-2z"/><path d="m57.943 65.639c1.104 0 2 .896 2 2v3.998c0 1.105-.896 2-2 2-1.105 0-2-.895-2-2v-3.998c0-1.106.895-2 2-2z"/></g></svg>