<svg enable-background="new 15 15 70 70" height="70" viewBox="15 15 70 70" width="70" xmlns="http://www.w3.org/2000/svg"><path d="m63.999 64.941v-4.381c2.39-1.385 3.999-3.961 3.999-6.92 0-4.417-3.581-8-7.998-8-1.602 0-3.084.48-4.334 1.291-1.23-5.317-5.974-9.29-11.665-9.29-6.626 0-11.998 5.372-11.998 11.998 0 3.548 1.55 6.728 3.999 8.923v4.916c-4.776-2.768-7.998-7.922-7.998-13.839 0-8.835 7.162-15.997 15.997-15.997 6.004 0 11.229 3.311 13.966 8.203.663-.113 1.336-.205 2.033-.205 6.626 0 11.998 5.372 11.998 12 0 5.223-3.342 9.653-7.999 11.301z" fill="#bebebe"/><g fill="#fff"><path d="m42.002 65.639c-1.104 0-1-.895-1-1.998v-8c0-1.104-.104-2 1-2s1 .896 1 2v8c0 1.103.104 1.998-1 1.998z"/><circle cx="42.002" cy="71.639" r="2"/><path d="m50.001 69.639c-1.104 0-1-.895-1-2v-7.998c0-1.104-.104-2 1-2s1 .896 1 2v7.998c0 1.105.104 2-1 2z"/><circle cx="50.001" cy="75.639" r="2"/><path d="m58 65.639c-1.104 0-1-.895-1-1.998v-8c0-1.104-.104-2 1-2s1 .896 1 2v8c0 1.103.104 1.998-1 1.998z"/><circle cx="58" cy="71.639" r="2"/></g></svg>