<svg enable-background="new 15 15 70 70" height="70" viewBox="15 15 70 70" width="70" xmlns="http://www.w3.org/2000/svg"><path d="m65.999 52h-3c-1.104 0-2-.895-2-1.999s.896-2 2-2h3c1.104 0 2-.896 2-1.999 0-1.105-.896-2-2-2s-2-.896-2-2 .896-2 2-2c.137 0 .271.014.401.041 3.121.211 5.597 2.783 5.597 5.959 0 3.312-2.685 5.998-5.998 5.998zm-10-3.999h-2-6.998-12.999c-1.104 0-1.999.896-1.999 2s.895 1.999 1.999 1.999h2 3.999 3 4 3 3.998 2c3.313 0 6 2.688 6 6 0 3.176-2.476 5.748-5.597 5.959-.131.027-.263.041-.403.041-1.104 0-2-.896-2-2 0-1.105.896-2 2-2s2-.896 2-2-.896-2-2-2h-2-3.998-3-4-3-3.999-2c-3.313 0-5.999-2.686-5.999-5.999 0-3.175 2.475-5.747 5.596-5.959.131-.026.266-.04.403-.04h12.999 6.998 2c1.104 0 2-.896 2-2s-.896-2-2-2-2-.895-2-2c0-1.104.896-2 2-2 .14 0 .272.015.403.041 3.121.211 5.597 2.783 5.597 5.959 0 3.312-2.687 5.999-6 5.999z" fill="#7cd5ff"/></svg>