<svg enable-background="new 0 0 32 32" height="32" viewBox="0 0 32 32" width="32" xmlns="http://www.w3.org/2000/svg"><path d="m8.714 25.5h12c2.931 0 5.5-2.805 5.5-6 0-.57-.083-1.127-.233-1.658 1.869-.464 3.233-2.139 3.233-4.092 0-2.212-1.698-4.035-3.932-4.226-.533-1.774-2.184-3.024-4.068-3.024-1.958 0-3.614 1.345-4.087 3.204-.455-.122-.925-.204-1.413-.204-2.579 0-4.771 1.793-5.336 4.265-.542-.176-1.1-.265-1.664-.265-2.93 0-5.5 2.805-5.5 6s2.57 6 5.5 6zm12.5-18c1.542 0 2.882 1.096 3.185 2.606.047.236.324.372.565.394 1.792 0 3.25 1.458 3.25 3.25 0 1.531-1.1 2.84-2.588 3.152-.879-1.883-2.646-3.269-4.618-3.395-.436-1.549-1.533-2.788-2.936-3.459.324-1.471 1.612-2.548 3.142-2.548zm-12.5 7c.63 0 1.252.137 1.849.408.146.067.314.058.453-.021.14-.079.232-.22.25-.379.252-2.285 2.165-4.008 4.448-4.008 2.136 0 3.989 1.518 4.41 3.609.048.238.254.397.505.401.036-.001.071-.005.085-.01 2.575 0 4.5 2.641 4.5 5s-1.925 5-4.5 5h-12c-2.575 0-4.5-2.641-4.5-5s1.925-5 4.5-5z" fill="#bebebe"/></svg>