<svg enable-background="new 0 0 32 32" height="32" viewBox="0 0 32 32" width="32" xmlns="http://www.w3.org/2000/svg"><g fill="#7cd5ff"><path d="m12 21c0-.275-.224-.5-.5-.5s-.5.225-.5.5v4c0 .275.224.5.5.5s.5-.225.5-.5z"/><path d="m18 21c0-.275-.225-.5-.5-.5s-.5.225-.5.5v4c0 .275.225.5.5.5s.5-.225.5-.5z"/><path d="m15 21c0-.275-.224-.5-.5-.5s-.5.225-.5.5v2c0 .275.224.5.5.5s.5-.225.5-.5z"/><path d="m21 21c0-.275-.225-.5-.5-.5s-.5.225-.5.5v2c0 .275.225.5.5.5s.5-.225.5-.5z"/></g><path d="m27.333 13.197c0-3.042-2.354-5.627-5.206-5.794-.659-2.346-2.822-4.009-5.294-4.009-2.578 0-4.77 1.793-5.335 4.265-.543-.176-1.101-.265-1.665-.265-2.981 0-5.5 2.657-5.5 5.803s2.519 5.803 5.5 5.803h12c2.981 0 5.5-2.657 5.5-5.803zm-22 0c0-2.559 2.103-4.803 4.5-4.803.63 0 1.252.137 1.85.408.146.067.314.058.453-.021.14-.08.232-.221.25-.379.252-2.285 2.164-4.007 4.447-4.007 2.136 0 3.99 1.518 4.41 3.608.048.239.252.396.505.402.036-.001.07-.005.085-.01 2.397 0 4.5 2.244 4.5 4.803s-2.103 4.802-4.5 4.802h-12c-2.397 0-4.5-2.244-4.5-4.803z" fill="#bebebe"/><circle cx="14.43" cy="25.605" fill="#fff" r=".5"/><circle cx="20.43" cy="25.605" fill="#fff" r=".5"/><circle cx="17.43" cy="27.605" fill="#fff" r=".5"/><circle cx="11.43" cy="27.605" fill="#fff" r=".5"/></svg>