<svg enable-background="new 0 0 32 32" height="32" viewBox="0 0 32 32" width="32" xmlns="http://www.w3.org/2000/svg"><path d="m19.5 7.5c.275 0 .5-.224.5-.5v-2c0-.276-.225-.5-.5-.5s-.5.224-.5.5v2c0 .276.225.5.5.5z" fill="#ffd550"/><path d="m30 15h-2c-.275 0-.5.224-.5.5s.225.5.5.5h2c.275 0 .5-.224.5-.5s-.225-.5-.5-.5z" fill="#ffd550"/><path d="m22.866 18.174c-.907-.832-2.062-1.385-3.324-1.457-.569-2.029-2.269-3.542-4.314-3.915-.409-.091-1.034-.087-1.034-.087-2.554.026-4.719 1.807-5.279 4.262-.543-.178-1.101-.267-1.665-.267-2.981 0-5.5 2.585-5.5 5.646s2.519 5.646 5.5 5.646h12v-.002c2.98 0 5.5-2.585 5.5-5.646 0-1.289-.466-2.479-1.208-3.442-.286-.361-.676-.738-.676-.738zm-3.615 8.823h-12c-2.44.003-4.501-2.124-4.501-4.643 0-2.518 2.061-4.646 4.5-4.646.63 0 1.252.138 1.849.408.146.065.314.058.454-.021.139-.08.232-.223.25-.382.252-2.284 2.165-4.007 4.448-4.007 2.135 0 3.99 1.518 4.41 3.607.047.233.252.4.489.4.037 0 .082-.005.101-.01 2.438 0 4.5 2.127 4.5 4.646 0 2.521-2.062 4.648-4.5 4.648z" fill="#bebebe"/><g fill="#ffd550"><path d="m19.693 9.749c2.654 0 4.813 2.16 4.813 4.814 0 1.393-.599 2.696-1.641 3.611 0 0 .39.377.676.737 1.248-1.104 1.966-2.672 1.966-4.347 0-3.206-2.607-5.814-5.814-5.814-2.482 0-4.709 1.624-5.5 3.965 0 0 .625-.004 1.034.087.721-1.812 2.494-3.053 4.466-3.053z"/><path d="m13.386 9.768c.098.098.226.146.354.146s.256-.049.354-.146c.195-.195.195-.512 0-.707l-1.415-1.414c-.195-.195-.512-.195-.707 0s-.195.512 0 .707z"/><path d="m25.76 9.914c.129 0 .256-.049.354-.146l1.415-1.414c.195-.195.195-.512 0-.707s-.512-.195-.707 0l-1.415 1.414c-.195.195-.195.512 0 .707.097.097.225.146.353.146z"/><path d="m25.982 20.364 1.414 1.415c.098.098.226.146.354.146s.256-.049.354-.146c.195-.195.195-.512 0-.707l-1.414-1.415c-.193-.195-.512-.195-.707 0s-.196.511-.001.707z"/></g></svg>