<svg enable-background="new 0 0 32 32" height="32" viewBox="0 0 32 32" width="32" xmlns="http://www.w3.org/2000/svg"><path d="m22.293 7.425c-.659-2.346-2.822-4.008-5.293-4.008-2.579 0-4.771 1.793-5.335 4.265-.543-.177-1.101-.265-1.665-.265-2.981 0-5.5 2.652-5.5 5.792 0 3.139 2.519 5.791 5.5 5.791h12c2.98 0 5.5-2.652 5.5-5.792 0-3.036-2.355-5.616-5.207-5.783zm-.293 10.575h-12c-2.397 0-4.5-2.239-4.5-4.792s2.103-4.792 4.5-4.792c.63 0 1.252.137 1.849.408.146.066.314.058.454-.021.139-.079.232-.221.25-.379.252-2.285 2.164-4.007 4.447-4.007 2.135 0 3.99 1.518 4.41 3.609.047.234.252.401.49.401.045.005.084-.004.1-.01 2.396 0 4.5 2.239 4.5 4.792 0 2.552-2.104 4.791-4.5 4.791z" fill="#787878"/><path d="m11.486 28.13c.097.095.222.142.348.142.131 0 .261-.051.359-.151l3.167-3.271c.14-.145.179-.357.101-.543-.079-.187-.26-.307-.461-.307h-1.204l2.004-1.861c.202-.188.214-.505.026-.707-.189-.203-.505-.215-.707-.027l-2.937 2.729c-.15.142-.2.358-.125.55.076.19.26.316.466.316h1.297l-2.346 2.423c-.192.199-.187.515.012.707z" fill="#ffeaa1"/><g fill="#7cd5ff"><path d="m18.605 24.268 2.498-2.498c.193-.193.193-.512 0-.707-.195-.193-.514-.193-.707 0l-2.498 2.498c-.194.194-.194.513 0 .707.099.099.227.146.354.146s.257-.049.353-.146z"/><path d="m8.606 24.268 2.497-2.498c.195-.193.195-.512 0-.707-.195-.193-.512-.193-.707 0l-2.497 2.498c-.195.194-.195.513 0 .707.098.099.226.146.354.146s.256-.049.353-.146z"/></g></svg>