<svg enable-background="new 0 0 32 32" height="32" viewBox="0 0 32 32" width="32" xmlns="http://www.w3.org/2000/svg"><g fill="#fff"><path d="m16 5.083c-3.978 0-11.5.63-11.5 3.015s7.522 3.015 11.5 3.015c3.979 0 11.5-.63 11.5-3.015s-7.521-3.015-11.5-3.015zm0 5.03c-6.794 0-10.5-1.331-10.5-2.015s3.706-2.015 10.5-2.015 10.5 1.331 10.5 2.015-3.706 2.015-10.5 2.015z"/><path d="m25.301 12.624c-.256-.01-.496.209-.523.474-.043.447-2.811 1.621-8.777 1.621s-8.733-1.174-8.778-1.621c0-.276-.224-.5-.5-.5s-.5.224-.5.5c0 2.073 6.396 2.621 9.778 2.621s9.777-.548 9.777-2.621c-.001-.266-.212-.461-.477-.474z"/><path d="m21.165 18.098c0-.275-.224-.5-.5-.5-.244 0-.447.174-.491.405-.27.238-1.725.661-4.174.661s-3.904-.423-4.174-.661c-.044-.231-.248-.405-.491-.405-.276 0-.5.225-.5.5 0 1.491 4.303 1.566 5.165 1.566.861 0 5.165-.075 5.165-1.566z"/><path d="m16 26.917c.176 0 .338-.092.429-.243l2.625-4.371c.141-.236.064-.544-.172-.686-.236-.143-.544-.065-.686.171l-2.196 3.657-2.19-3.648c-.142-.236-.449-.312-.686-.171s-.313.449-.171.687l2.619 4.361c.09.15.252.243.428.243z"/></g></svg>