<svg enable-background="new 15 15 70 70" height="70" viewBox="15 15 70 70" width="70" xmlns="http://www.w3.org/2000/svg"><path d="m43.945 65.639c-8.835 0-15.998-7.162-15.998-15.998s7.163-15.998 15.998-15.998c6.004 0 11.229 3.312 13.965 8.203.664-.113 1.338-.205 2.033-.205 6.627 0 11.998 5.373 11.998 12 0 6.625-5.371 11.998-11.998 11.998-2.775 0-12.8 0-15.998 0zm15.998-4c4.418 0 8-3.582 8-7.998 0-4.417-3.582-8-8-8-1.602 0-3.082.481-4.334 1.291-1.23-5.316-5.975-9.29-11.666-9.29-6.626 0-11.998 5.372-11.998 11.999 0 6.626 5.372 11.998 11.998 11.998z" fill="#fff"/></svg>