<svg enable-background="new 15 15 70 70" height="70" viewBox="15 15 70 70" width="70" xmlns="http://www.w3.org/2000/svg"><path d="m69.998 65.641h-39.995c-1.104 0-2-.896-2-2s.896-2 2-2h39.995c1.104 0 2 .896 2 2s-.894 2-2 2zm0-8h-39.995c-1.104 0-2-.895-2-2 0-1.104.896-2 2-2h39.995c1.104 0 2 .896 2 2 0 1.105-.894 2-2 2zm-9.999-11.998c-1.601 0-3.083.48-4.333 1.291-1.232-5.317-5.974-9.291-11.665-9.291-6.626 0-11.998 5.373-11.998 12h-4c0-8.835 7.163-15.999 15.998-15.999 6.004 0 11.229 3.312 13.965 8.204.664-.113 1.337-.205 2.033-.205 5.222 0 9.651 3.342 11.301 8h-4.381c-1.384-2.39-3.961-4-6.92-4zm-29.996 23.996h39.995c1.104 0 2 .896 2 2 0 1.105-.896 2-2 2h-39.995c-1.104 0-2-.895-2-2 0-1.104.895-2 2-2z" fill="#fff"/></svg>