<svg enable-background="new 15 15 70 70" height="70" viewBox="15 15 70 70" width="70" xmlns="http://www.w3.org/2000/svg"><path d="m79.941 43.641h-4c-1.104 0-2-.895-2-2 0-1.104.896-1.998 2-1.998h4c1.104 0 2 .895 2 1.998 0 1.105-.896 2-2 2zm-7.857-13.312c-.781.781-2.047.781-2.828 0-.781-.78-.781-2.047 0-2.827l2.828-2.828c.781-.781 2.047-.781 2.828 0 .781.78.781 2.047 0 2.828zm-2.947 15.607c1.75 2.086 2.807 4.77 2.807 7.705 0 6.625-5.373 11.998-12 11.998-2.773 0-12.799 0-15.998 0-8.835 0-15.998-7.162-15.998-15.998s7.163-15.998 15.998-15.998c1.572 0 3.09.232 4.523.654 2.195-2.827 5.618-4.654 9.475-4.654 6.627 0 12 5.373 12 11.998-.003 1.515-.296 2.961-.807 4.295zm-37.19 3.705c0 6.626 5.371 11.998 11.998 11.998h15.999c4.418 0 7.998-3.582 7.998-7.998 0-4.417-3.58-8-7.998-8-1.601 0-3.084.482-4.334 1.291-1.229-5.316-5.974-9.289-11.665-9.289-6.627 0-11.998 5.371-11.998 11.998zm25.996-15.998c-2.213 0-4.215.898-5.662 2.349 2.34 1.436 4.285 3.453 5.629 5.854.664-.113 1.337-.205 2.033-.205 2.125 0 4.119.559 5.85 1.527.096-.494.15-1.004.15-1.527 0-4.416-3.582-7.998-8-7.998zm0-8c-1.104 0-2-.895-2-1.999v-3.999c0-1.105.896-2 2-2s2 .895 2 2v3.999c0 1.105-.894 1.999-2 1.999zm-14.14 4.686-2.827-2.827c-.781-.781-.781-2.048 0-2.828.78-.781 2.047-.781 2.827 0l2.828 2.828c.781.78.781 2.047 0 2.827-.78.781-2.047.781-2.828 0z" fill="#fff"/></svg>