<svg enable-background="new 15 15 70 70" height="70" viewBox="15 15 70 70" width="70" xmlns="http://www.w3.org/2000/svg"><path d="m69.764 46.758c1.367 1.949 2.178 4.318 2.178 6.883 0 6.625-5.371 11.998-11.998 11.998-2.773 0-12.799 0-15.998 0-8.836 0-15.998-7.162-15.998-15.998s7.162-15.998 15.998-15.998c2.002 0 3.914.375 5.68 1.047 1.635-4.682 6.078-8.047 11.317-8.047.756 0 1.492.078 2.207.212-.131.575-.207 1.173-.207 1.788 0 4.418 3.582 7.999 7.998 7.999.617 0 1.213-.076 1.789-.208.134.717.211 1.453.211 2.208 0 3.133-1.211 5.979-3.177 8.116zm-37.817 2.883c0 6.626 5.371 11.998 11.998 11.998h15.999c4.418 0 7.998-3.582 7.998-7.998 0-4.417-3.58-8-7.998-8-1.601 0-3.084.482-4.334 1.291-1.23-5.316-5.974-9.29-11.665-9.29-6.627 0-11.998 5.372-11.998 11.999zm19.549-14.096h.002s-.001 0-.002 0zm7.658-4.695c-2.899.664-5.174 2.91-5.924 5.775 1.918 1.372 3.521 3.152 4.68 5.22.664-.113 1.337-.205 2.033-.205 2.617 0 5.033.85 7.005 2.271.858-.979 1.485-2.168 1.786-3.482-4.853-.904-8.675-4.723-9.58-9.579z" fill="#fff"/></svg>