<svg enable-background="new 15 15 70 70" height="70" viewBox="15 15 70 70" width="70" xmlns="http://www.w3.org/2000/svg"><path d="m59.999 65.641c-.28 0-.649 0-1.062 0l3.584-4.412c3.182-1.057 5.478-4.053 5.478-7.588 0-4.417-3.581-7.998-7.999-7.998-1.602 0-3.083.48-4.333 1.29-1.231-5.316-5.974-9.29-11.665-9.29-6.626 0-11.998 5.372-11.998 12 0 5.446 3.632 10.039 8.604 11.503l-1.349 3.776c-6.52-2.021-11.255-8.098-11.255-15.282 0-8.835 7.163-15.999 15.998-15.999 6.004 0 11.229 3.312 13.965 8.204.664-.114 1.338-.205 2.033-.205 6.627 0 11.999 5.371 11.999 12 0 6.628-5.373 12.001-12 12.001zm-11.998-14h9.998l-5.999 10h6.999l-12.998 15.998 3.6-11.998h-6.6z" fill="#fff"/></svg>