<svg enable-background="new 15 15 70 70" height="70" viewBox="15 15 70 70" width="70" xmlns="http://www.w3.org/2000/svg"><path d="m68.866 36.459h-37.995c-1.104 0-2-.896-2-1.999 0-1.104.896-2 2-2h37.995c1.104 0 2 .896 2 2 0 1.103-.895 1.999-2 1.999zm-35.995 4h29.996c1.104 0 2 .896 2 2s-.896 1.999-2 1.999h-29.996c-1.104 0-2-.896-2-1.999 0-1.105.896-2 2-2zm11.998 7.999h21.998c1.104 0 1.999.896 1.999 1.999 0 1.104-.896 2-1.999 2h-21.998c-1.104 0-1.999-.896-1.999-2 0-1.103.895-1.999 1.999-1.999zm2 15.998h5.999c1.104 0 2 .896 2 1.999s-.896 2-2 2h-5.999c-1.104 0-2-.896-2-2s.896-1.999 2-1.999zm1-6c0-1.104.896-1.999 2-1.999h13.998c1.104 0 2 .896 2 1.999 0 1.104-.896 2-2 2h-13.998c-1.104 0-2-.895-2-2z" fill="#fff"/></svg>