<?xml version="1.0" encoding="utf-8"?>
<!-- Generator: Adobe Illustrator 16.0.4, SVG Export Plug-In . SVG Version: 6.00 Build 0)  -->
<!DOCTYPE svg PUBLIC "-//W3C//DTD SVG 1.0//EN" "http://www.w3.org/TR/2001/REC-SVG-20010904/DTD/svg10.dtd">
<svg version="1.0" id="Layer_1" xmlns="http://www.w3.org/2000/svg" xmlns:xlink="http://www.w3.org/1999/xlink" x="0px" y="0px"
	 width="90px" height="90px" viewBox="0 0 90 90" style="enable-background:new 0 0 90 90;" xml:space="preserve">
<path style="fill-rule:evenodd;clip-rule:evenodd;fill:#FFFFFF;" d="M32.689,15.901c0.786-0.36,1.581-0.683,2.381-0.974
	c0.11-0.041,0.221-0.081,0.331-0.12c0.812-0.285,1.628-0.538,2.451-0.755c0.08-0.021,0.161-0.04,0.241-0.061
	c0.861-0.22,1.727-0.408,2.595-0.554l0,0c2.841-0.478,5.708-0.558,8.528-0.27c-9.426,7.968-12.114,21.762-5.725,32.827
	C50.02,57.303,63.753,61.82,75.542,57.154c-1.078,2.626-2.488,5.122-4.247,7.401l0,0c-1.235,1.601-2.63,3.098-4.18,4.464
	c-0.112,0.099-0.238,0.185-0.352,0.282c-0.671,0.575-1.358,1.138-2.086,1.662c-0.861,0.618-1.758,1.202-2.695,1.743
	c-15.298,8.836-34.859,3.593-43.691-11.712C9.458,45.691,14.7,26.122,29.998,17.287c0.791-0.457,1.596-0.867,2.408-1.249
	C32.5,15.993,32.594,15.945,32.689,15.901z M23.487,57.996c7.18,12.436,23.082,16.696,35.518,9.517
	c1.368-0.79,2.619-1.701,3.785-2.686c-9.879-1.004-19.152-6.571-24.496-15.832c-5.152-8.927-5.485-19.293-1.857-28.146
	c-1.164,0.463-2.315,0.983-3.433,1.628C20.568,29.657,16.307,45.559,23.487,57.996z"/>
</svg>
