<?xml version="1.0" encoding="utf-8"?>
<!-- Generator: Adobe Illustrator 16.0.4, SVG Export Plug-In . SVG Version: 6.00 Build 0)  -->
<!DOCTYPE svg PUBLIC "-//W3C//DTD SVG 1.0//EN" "http://www.w3.org/TR/2001/REC-SVG-20010904/DTD/svg10.dtd">
<svg version="1.0" id="Layer_1" xmlns="http://www.w3.org/2000/svg" xmlns:xlink="http://www.w3.org/1999/xlink" x="0px" y="0px"
	 width="90px" height="90px" viewBox="0 0 90 90" style="enable-background:new 0 0 90 90;" xml:space="preserve">
<path style="fill-rule:evenodd;clip-rule:evenodd;fill:#FFFFFF;" d="M83,50h-6c-1.104,0-2-0.896-2-2v-2c0-1.104,0.896-2,2-2h6
	c1.104,0,2,0.896,2,2v2C85,49.104,84.104,50,83,50z"/>
<path style="fill-rule:evenodd;clip-rule:evenodd;fill:#FFFFFF;" d="M69.749,26.494c-0.781,0.781-2.048,0.781-2.829,0l-1.414-1.415
	c-0.781-0.781-0.781-2.047,0-2.828l4.243-4.243c0.78-0.781,2.047-0.781,2.828,0l1.414,1.414c0.781,0.781,0.781,2.047,0,2.829
	L69.749,26.494z"/>
<path style="fill-rule:evenodd;clip-rule:evenodd;fill:#FFFFFF;" d="M66.577,57.44c-0.565,0.843-1.499,1.559-2.42,1.56h-3.064
	c-1.312-0.001-1.655-0.876-0.749-2.562c0.044-0.082,0.064-0.146,0.083-0.21c1.625-2.698,2.572-5.848,2.572-9.228
	c0-9.94-8.059-17.999-17.999-17.999c-9.081,0-16.57,6.732-17.801,15.474c-0.056,0.133-0.095,0.31-0.1,0.558
	c-0.021,1.104-0.933,1.982-2.037,1.962l-1.999-0.037c-1.085-0.02-1.947-0.901-1.958-1.979C22.134,32.674,32.43,23.003,45,23.003
	c13.253,0,23.997,10.744,23.997,23.997C68.997,50.75,68.118,54.285,66.577,57.44z"/>
<path style="fill-rule:evenodd;clip-rule:evenodd;fill:#FFFFFF;" d="M46,17h-2c-1.104,0-2-0.896-2-2V9c0-1.104,0.896-2,2-2h2
	c1.104,0,2,0.896,2,2v6C48,16.104,47.104,17,46,17z"/>
<path style="fill-rule:evenodd;clip-rule:evenodd;fill:#FFFFFF;" d="M23.08,26.494c-0.781,0.781-2.048,0.781-2.829,0l-4.242-4.243
	c-0.781-0.781-0.781-2.047,0-2.829l1.414-1.414c0.781-0.781,2.047-0.781,2.828,0l4.243,4.243c0.781,0.781,0.781,2.047,0,2.828
	L23.08,26.494z"/>
<path style="fill-rule:evenodd;clip-rule:evenodd;fill:#FFFFFF;" d="M28.048,53H51c1.104,0,2,0.896,2,2v2
	c0,1.104-0.895,1.999-1.998,2H12.998C11.895,58.999,11,58.104,11,57v-2c0-1.104,0.896-2,2-2h8.795H28.048z"/>
<path style="fill-rule:evenodd;clip-rule:evenodd;fill:#FFFFFF;" d="M60.833,65H77c1.104,0,2,0.896,2,2v2c0,1.104-0.896,2-2,2H7
	c-1.104,0-2-0.896-2-2v-2c0-1.104,0.896-2,2-2h22.167H60.833z"/>
<path style="fill-rule:evenodd;clip-rule:evenodd;fill:#FFFFFF;" d="M33,77h34c1.104,0,2,0.896,2,2v2c0,1.104-0.896,2-2,2H33
	c-1.104,0-2-0.896-2-2v-2C31,77.896,31.896,77,33,77z"/>
</svg>
