<?xml version="1.0" encoding="utf-8"?>
<!-- Generator: Adobe Illustrator 16.0.4, SVG Export Plug-In . SVG Version: 6.00 Build 0)  -->
<!DOCTYPE svg PUBLIC "-//W3C//DTD SVG 1.0//EN" "http://www.w3.org/TR/2001/REC-SVG-20010904/DTD/svg10.dtd">
<svg version="1.0" id="Layer_1" xmlns="http://www.w3.org/2000/svg" xmlns:xlink="http://www.w3.org/1999/xlink" x="0px" y="0px"
	 width="90px" height="90px" viewBox="0 0 90 90" style="enable-background:new 0 0 90 90;" xml:space="preserve">
<path style="fill-rule:evenodd;clip-rule:evenodd;fill:#FFFFFF;" d="M85,52.976c0,8.832-7.165,15.992-16.004,15.992h-9.775
	c-1.054-0.177-1.137-1.064-0.662-1.931c0.012-0.021,0.012-0.036,0.02-0.055c0.34-0.622,0.703-1.285,1.071-1.959
	c0.032-0.045,0.066-0.085,0.098-0.142c0.693-1.246,1.438-1.906,3.221-1.906c0.019,0,0.029-0.004,0.047-0.004h5.965
	c5.518,0,9.99-4.47,9.99-9.982c0-5.04-3.742-9.196-8.598-9.874C70.78,41.804,71,40.412,71,38.969
	c0-7.718-6.262-13.976-13.986-13.976c-2.934,0-5.653,0.906-7.901,2.448c-2.7-5.015-7.999-8.425-14.096-8.425
	c-8.837,0-16,7.159-16,15.988c0,2.919,0.794,5.646,2.162,8.001h-0.189c-5.518,0-9.99,4.469-9.99,9.982
	c0,5.513,4.473,9.982,9.99,9.982h4.014c0.014,0,0.021,0.004,0.035,0.004c1.22,0,1.845,0.812,1.313,1.812
	c-0.012,0.021-0.01,0.035-0.018,0.054c-0.485,0.894-0.949,1.749-1.364,2.513c-0.496,0.835-1.123,1.584-2.653,1.615h-1.312
	C12.165,68.968,5,61.808,5,52.976c0-6.07,3.384-11.351,8.371-14.059c-0.233-1.282-0.373-2.596-0.373-3.944
	C12.998,22.838,22.843,13,34.986,13c6.308,0,11.98,2.669,15.99,6.921c1.901-0.599,3.922-0.925,6.021-0.925
	c11.048,0,20.004,8.95,20.004,19.99c0,0.052-0.008,0.101-0.008,0.152C81.775,41.904,85,47.059,85,52.976z"/>
<path style="fill-rule:evenodd;clip-rule:evenodd;fill:#FFFFFF;" d="M36.3,66.701c2.642,1.524,3.546,4.899,2.022,7.539
	c-1.525,2.64-4.904,3.544-7.545,2.02c-2.642-1.524-3.546-4.9-2.021-7.539C30.28,66.081,33.659,65.177,36.3,66.701z"/>
<path style="fill-rule:evenodd;clip-rule:evenodd;fill:#FFFFFF;" d="M36.733,63.777c-0.718-0.414-0.963-1.331-0.549-2.048
	c0.415-0.718,5.621-10.291,6.035-11.008c0.415-0.717,1.332-0.963,2.05-0.549c0.718,0.415,0.963,1.332,0.549,2.049
	c-0.415,0.718-5.621,10.291-6.035,11.008C38.369,63.946,37.451,64.191,36.733,63.777z"/>
<path style="fill-rule:evenodd;clip-rule:evenodd;fill:#FFFFFF;" d="M50.742,63.777c-0.718-0.414-0.964-1.331-0.549-2.048
	c0.415-0.718,5.621-10.291,6.035-11.008c0.415-0.717,1.332-0.963,2.05-0.549c0.718,0.415,0.963,1.332,0.549,2.049
	c-0.415,0.718-5.621,10.291-6.035,11.008C52.378,63.946,51.46,64.191,50.742,63.777z"/>
<circle style="fill-rule:evenodd;clip-rule:evenodd;fill:#FFFFFF;" cx="47.548" cy="71.48" r="5.52"/>
</svg>
