<?xml version="1.0" encoding="utf-8"?>
<!-- Generator: Adobe Illustrator 16.0.4, SVG Export Plug-In . SVG Version: 6.00 Build 0)  -->
<!DOCTYPE svg PUBLIC "-//W3C//DTD SVG 1.0//EN" "http://www.w3.org/TR/2001/REC-SVG-20010904/DTD/svg10.dtd">
<svg version="1.0" id="Layer_1" xmlns="http://www.w3.org/2000/svg" xmlns:xlink="http://www.w3.org/1999/xlink" x="0px" y="0px"
	 width="24px" height="24px" viewBox="0 0 24 24" style="enable-background:new 0 0 24 24;" xml:space="preserve">
<path style="fill-rule:evenodd;clip-rule:evenodd;fill:#FFFFFF;" d="M11,17L11,17V9.501h1.5v4.903V17l0,0
	c0,0.829,0.672,1.501,1.5,1.501c0.829,0,1.5-0.672,1.5-1.501c0-0.696-0.475-1.279-1.118-1.448V15.55
	C14.164,15.497,14,15.301,14,15.064v-0.516c0-0.276,0.224-0.5,0.5-0.5c0.044,0,0.087,0.008,0.128,0.019v-0.001
	c1.355,0.289,2.374,1.492,2.374,2.934c0,1.658-1.344,3.001-3.001,3.001C12.344,20.001,11,18.658,11,17z"/>
<path style="fill-rule:evenodd;clip-rule:evenodd;fill:#FFFFFF;" d="M12,4c-4.916,0-8.905,3.504-8.992,7.856
	C5.445,10.698,8.578,10,12,10s6.555,0.698,8.992,1.856C20.905,7.504,16.916,4,12,4z M5.107,9.463C6.256,7.14,8.928,5.5,12,5.5
	s5.744,1.64,6.893,3.963C16.767,8.835,14.401,8.5,12,8.5S7.233,8.835,5.107,9.463z"/>
</svg>
