<?xml version="1.0" encoding="utf-8"?>
<!-- Generator: Adobe Illustrator 16.0.4, SVG Export Plug-In . SVG Version: 6.00 Build 0)  -->
<!DOCTYPE svg PUBLIC "-//W3C//DTD SVG 1.0//EN" "http://www.w3.org/TR/2001/REC-SVG-20010904/DTD/svg10.dtd">
<svg version="1.0" id="Layer_1" xmlns="http://www.w3.org/2000/svg" xmlns:xlink="http://www.w3.org/1999/xlink" x="0px" y="0px"
	 width="90px" height="90px" viewBox="0 0 90 90" style="enable-background:new 0 0 90 90;" xml:space="preserve">
<g>
	<g>
		<path style="fill-rule:evenodd;clip-rule:evenodd;fill:#FFFFFF;" d="M59.667,36.962c-5.005-8.669-2.76-19.511,4.826-25.576
			c-2.694-0.474-5.467-0.513-8.219-0.113c-1.578,0.229-3.148,0.603-4.69,1.128c-0.15,0.052-0.296,0.119-0.445,0.174
			c-0.62,0.224-1.237,0.457-1.846,0.731c-0.771,0.35-1.532,0.735-2.279,1.167c-2.332,1.347-4.376,3.001-6.111,4.881
			c-1.157,1.253-2.177,2.606-3.053,4.037c-0.438,0.716-0.84,1.45-1.205,2.2c-1.462,3.004-2.335,6.266-2.571,9.598
			c-0.153,2.175-0.017,4.378,0.388,6.559c2.514,1.309,4.701,2.49,7.14,2.99c-3.879-9.159-0.428-19.981,8.406-25.082
			c0.795-0.459,1.613-0.835,2.439-1.174c-2.383,6.884-1.899,14.719,2.027,21.522c3.989,6.912,10.673,11.288,17.957,12.591
			c-0.765,0.606-1.563,1.182-2.434,1.684c-3.941,2.275-8.332,3.035-12.522,2.497c1.874,2.61,5.551,3.337,6.437,5.939
			c3.12-0.472,6.205-1.517,9.103-3.19c0.774-0.447,1.518-0.93,2.228-1.441c0.636-0.459,1.237-0.95,1.82-1.456
			c0.067-0.059,0.143-0.109,0.209-0.168c1.288-1.142,2.442-2.394,3.459-3.734c1.684-2.222,2.964-4.692,3.854-7.292
			C75.46,49.202,64.737,45.744,59.667,36.962z"/>
	</g>
</g>
<path style="fill-rule:evenodd;clip-rule:evenodd;fill:#FFFFFF;" d="M54.997,79H16.995C10.37,79,5,73.63,5,67.006
	c0-3.596,1.59-6.812,4.096-9.011c-0.068-0.654-0.105-1.316-0.105-1.988c0-10.493,8.506-18.999,18.999-18.999
	c5.032,0,9.595,1.97,12.994,5.164c0.672-0.086,1.353-0.146,2.048-0.146c8.028,0,14.656,5.918,15.809,13.625
	c4.737,1.603,8.152,6.075,8.152,11.354C66.992,73.63,61.622,79,54.997,79z M55.005,61.016h-2.422
	c0.294-0.942,0.453-1.945,0.453-2.984c0-5.525-4.479-10.005-10.006-10.005c-1.479,0-2.88,0.329-4.145,0.906
	c-2.317-3.564-6.328-5.927-10.896-5.927c-7.179,0-12.998,5.819-12.998,12.998c0,1.813,0.374,3.54,1.045,5.108
	c-2.855,0.461-5.041,2.918-5.041,5.902c0,3.313,2.686,6,5.999,6h38.011c3.313,0,6-2.687,6-6
	C61.005,63.703,58.318,61.016,55.005,61.016z"/>
</svg>
