<?xml version="1.0" encoding="utf-8"?>
<!-- Generator: Adobe Illustrator 16.0.4, SVG Export Plug-In . SVG Version: 6.00 Build 0)  -->
<!DOCTYPE svg PUBLIC "-//W3C//DTD SVG 1.0//EN" "http://www.w3.org/TR/2001/REC-SVG-20010904/DTD/svg10.dtd">
<svg version="1.0" id="Layer_1" xmlns="http://www.w3.org/2000/svg" xmlns:xlink="http://www.w3.org/1999/xlink" x="0px" y="0px"
	 width="90px" height="90px" viewBox="0 0 90 90" style="enable-background:new 0 0 90 90;" xml:space="preserve">
<g>
	<g>
		<path style="fill-rule:evenodd;clip-rule:evenodd;fill:#FFFFFF;" d="M76.994,39.154c0-0.051,0.008-0.102,0.008-0.152
			C77.001,27.954,68.045,19,56.998,19c-2.099,0-4.12,0.326-6.021,0.924C46.967,15.67,41.294,13,34.986,13
			c-12.144,0-21.988,9.844-21.988,21.986c0,1.351,0.14,2.665,0.372,3.947C8.385,41.645,5,46.927,5,53.001
			c0,8.84,7.165,16.004,16.003,16.004h6.583c0.793-0.08,1.425-1.382,1.425-2.988c0-1.657-0.671-3.002-1.5-3.002
			c-0.02,0-0.04-0.006-0.06-0.012h-6.463c-5.517,0-9.99-4.474-9.99-9.988c0-5.517,4.473-9.99,9.99-9.99h0.19
			c-1.367-2.355-2.162-5.085-2.162-8.005c0-8.836,7.164-16,16-16c6.098,0,11.396,3.412,14.097,8.431
			c2.249-1.544,4.968-2.448,7.901-2.448c7.724,0,13.985,6.259,13.985,13.982c0,1.444-0.219,2.838-0.626,4.149
			c4.856,0.678,8.598,4.837,8.598,9.881c0,5.515-4.473,9.988-9.99,9.988h-6.387c-0.021,0.006-0.041,0.012-0.06,0.012
			c-0.829,0-1.501,1.345-1.501,3.002c0,1.606,0.632,2.908,1.425,2.988h6.538C77.835,69.005,85,61.841,85,53.001
			C85,47.079,81.775,41.922,76.994,39.154z"/>
	</g>
</g>
<path style="fill-rule:evenodd;clip-rule:evenodd;fill:#FFFFFF;" d="M55.365,60.93c-0.833,0.48-5.039,2.069-7.678,3.082
	c2.641,1.017,6.835,2.602,7.667,3.082c1.197,0.689,1.607,2.22,0.916,3.416s-2.221,1.606-3.417,0.917
	c-0.833-0.481-4.303-3.325-6.502-5.105c0.44,2.791,1.165,7.218,1.165,8.177c0,1.382-1.12,2.502-2.501,2.502
	c-1.381,0-2.501-1.12-2.501-2.502c0-0.959,0.727-5.388,1.169-8.183c-2.2,1.78-5.664,4.614-6.496,5.095
	c-1.196,0.69-2.726,0.282-3.417-0.916c-0.69-1.196-0.281-2.727,0.916-3.416c0.833-0.481,5.025-2.063,7.665-3.078
	c-2.642-1.015-6.832-2.598-7.663-3.078c-1.197-0.689-1.606-2.22-0.916-3.416c0.691-1.198,2.221-1.606,3.417-0.917
	c0.833,0.481,4.303,3.322,6.502,5.104c-0.44-2.792-1.165-7.217-1.165-8.179c0-1.382,1.12-2.501,2.501-2.501
	c1.382,0,2.502,1.119,2.502,2.501c0,0.962-0.727,5.391-1.169,8.185c2.2-1.78,5.672-4.621,6.504-5.103
	c1.196-0.689,2.726-0.279,3.417,0.917S56.562,60.24,55.365,60.93z"/>
</svg>
