<?xml version="1.0" encoding="utf-8"?>
<!-- Generator: Adobe Illustrator 16.0.4, SVG Export Plug-In . SVG Version: 6.00 Build 0)  -->
<!DOCTYPE svg PUBLIC "-//W3C//DTD SVG 1.0//EN" "http://www.w3.org/TR/2001/REC-SVG-20010904/DTD/svg10.dtd">
<svg version="1.0" id="Layer_1" xmlns="http://www.w3.org/2000/svg" xmlns:xlink="http://www.w3.org/1999/xlink" x="0px" y="0px"
	 width="90px" height="90px" viewBox="0 0 90 90" style="enable-background:new 0 0 90 90;" xml:space="preserve">
<g>
	<g>
		<path style="fill-rule:evenodd;clip-rule:evenodd;fill:#FFFFFF;" d="M76.994,39.146c0-0.051,0.008-0.1,0.008-0.153
			c0-11.041-8.956-19.994-20.004-19.994c-2.099,0-4.121,0.326-6.021,0.926C46.966,15.671,41.295,13,34.986,13
			c-12.144,0-21.988,9.84-21.988,21.979c0,1.349,0.139,2.663,0.372,3.944C8.384,41.634,5,46.916,5,52.988
			c0,8.834,7.165,15.996,16.004,15.996h8.466c0.015-0.002,0.03-0.008,0.043-0.008c0.828,0,1.5-1.344,1.5-3.001
			c0-1.621-0.644-2.934-1.447-2.991h-8.577c-5.518,0-9.99-4.47-9.99-9.984s4.473-9.984,9.99-9.984h0.189
			c-1.366-2.356-2.162-5.086-2.162-8.004c0-8.833,7.163-15.994,15.999-15.994c6.099,0,11.397,3.412,14.098,8.428
			c2.249-1.542,4.968-2.448,7.901-2.448c7.724,0,13.986,6.26,13.986,13.979c0,1.444-0.221,2.837-0.627,4.146
			c4.855,0.68,8.598,4.837,8.598,9.877c0,5.515-4.473,9.984-9.99,9.984h-8.502c-0.803,0.058-1.447,1.37-1.447,2.991
			c0,1.657,0.672,3.001,1.501,3.001c0.012,0,0.024,0.006,0.037,0.008h8.427C77.835,68.984,85,61.822,85,52.988
			C85,47.069,81.775,41.911,76.994,39.146z"/>
	</g>
</g>
<path style="fill-rule:evenodd;clip-rule:evenodd;fill:#FFFFFF;" d="M54.823,62.566l0.021,0.037L43.078,76.541l-0.015-0.004
	C42.858,76.809,42.518,77,42.113,77c-0.639,0-1.156-0.447-1.156-0.998c0-0.01,0.007-0.018,0.007-0.027l-0.021-0.006l1.987-9.722
	c0.036-0.096,0.069-0.193,0.069-0.299c0-0.551-0.518-0.996-1.155-0.996c-0.018,0-0.031,0.008-0.048,0.008l-0.003-0.002l-5.462-0.029
	c-0.046,0.006-0.087,0.023-0.134,0.023c-0.639,0-1.157-0.445-1.157-0.996c0-0.184,0.073-0.348,0.174-0.496l-0.007-0.01
	l11.614-14.027l0.032,0.008c0.206-0.271,0.547-0.463,0.951-0.463c0.635,0,1.149,0.443,1.155,0.988l0.031,0.01l-1.898,9.61
	c-0.061,0.121-0.094,0.254-0.094,0.393c0,0.549,0.519,0.996,1.156,0.996c0.021,0,0.038-0.01,0.058-0.01l0.025,0.02h5.629
	c0.021,0,0.039-0.01,0.06-0.01c0.638,0,1.156,0.445,1.156,0.996C55.083,62.193,54.978,62.396,54.823,62.566z"/>
</svg>
