<?xml version="1.0" encoding="utf-8"?>
<!-- Generator: Adobe Illustrator 16.0.4, SVG Export Plug-In . SVG Version: 6.00 Build 0)  -->
<!DOCTYPE svg PUBLIC "-//W3C//DTD SVG 1.0//EN" "http://www.w3.org/TR/2001/REC-SVG-20010904/DTD/svg10.dtd">
<svg version="1.0" id="Layer_1" xmlns="http://www.w3.org/2000/svg" xmlns:xlink="http://www.w3.org/1999/xlink" x="0px" y="0px"
	 width="90px" height="90px" viewBox="0 0 90 90" style="enable-background:new 0 0 90 90;" xml:space="preserve">
<g>
	<g>
		<path style="fill-rule:evenodd;clip-rule:evenodd;fill:#FFFFFF;" d="M53,77H43c-1.104,0-2,0.896-2,2v2c0,1.104,0.896,2,2,2h10
			c1.104,0,2-0.896,2-2v-2C55,77.896,54.104,77,53,77z"/>
	</g>
</g>
<path style="fill-rule:evenodd;clip-rule:evenodd;fill:#FFFFFF;" d="M15,21h60c1.104,0,2,0.896,2,2v2c0,1.104-0.877,2-2,2H15
	c-1.104,0-2-0.896-2-2v-2C13,21.896,13.896,21,15,21z"/>
<path style="fill-rule:evenodd;clip-rule:evenodd;fill:#FFFFFF;" d="M7,7h76c1.104,0,2,0.896,2,2v2c0,1.104-0.896,2-2,2H7
	c-1.104,0-2-0.896-2-2V9C5,7.896,5.896,7,7,7z"/>
<path style="fill-rule:evenodd;clip-rule:evenodd;fill:#FFFFFF;" d="M27,35h40c1.104,0,2,0.896,2,2v2c0,1.104-0.896,2-2,2H27
	c-1.104,0-2-0.896-2-2v-2C25,35.896,25.896,35,27,35z"/>
<path style="fill-rule:evenodd;clip-rule:evenodd;fill:#FFFFFF;" d="M43,63h16c1.104,0,2,0.896,2,2v2c0,1.104-0.896,2-2,2H43
	c-1.104,0-2-0.896-2-2v-2C41,63.896,41.896,63,43,63z"/>
<path style="fill-rule:evenodd;clip-rule:evenodd;fill:#FFFFFF;" d="M39,49h28c1.104,0,2,0.896,2,2v2c0,1.104-0.896,2-2,2H39
	c-1.104,0-2-0.896-2-2v-2C37,49.896,37.896,49,39,49z"/>
</svg>
