<?xml version="1.0" encoding="utf-8"?>
<!-- Generator: Adobe Illustrator 16.0.4, SVG Export Plug-In . SVG Version: 6.00 Build 0)  -->
<!DOCTYPE svg PUBLIC "-//W3C//DTD SVG 1.0//EN" "http://www.w3.org/TR/2001/REC-SVG-20010904/DTD/svg10.dtd">
<svg version="1.0" id="Layer_1" xmlns="http://www.w3.org/2000/svg" xmlns:xlink="http://www.w3.org/1999/xlink" x="0px" y="0px"
	 width="90px" height="90px" viewBox="0 0 90 90" style="enable-background:new 0 0 90 90;" xml:space="preserve">
<g>
	<g>
		<path style="fill-rule:evenodd;clip-rule:evenodd;fill:#FFFFFF;" d="M73,49H7c-1.104,0-2,0.896-2,2v2c0,1.104,0.896,2,2,2h66
			c3.313,0,6,2.687,6,6s-2.687,6-6,6c-2.783,0-5.117-1.897-5.795-4.468l-0.006,0.001c-0.209-0.88-0.996-1.537-1.94-1.537h-2.062
			c-1.104,0-2,0.896-2,2c0,0.178,0.03,0.348,0.074,0.512h-0.004C62.421,68.931,67.233,73,73,73c6.627,0,12-5.373,12-12
			S79.627,49,73,49z"/>
	</g>
</g>
<path style="fill-rule:evenodd;clip-rule:evenodd;fill:#FFFFFF;" d="M61,41L61,41H7c-1.104,0-2-0.896-2-2v-2c0-1.104,0.896-2,2-2h8
	h35.618H61l0,0c3.313,0,6-2.687,6-6c0-3.314-2.687-6-6-6c-2.783,0-5.116,1.897-5.795,4.467h-0.006
	c-0.209,0.88-0.996,1.537-1.94,1.537h-2.062c-1.104,0-2-0.896-2-2c0-0.178,0.03-0.348,0.074-0.512h-0.004
	C50.421,21.069,55.233,17,61,17c6.627,0,12,5.373,12,12S67.627,41,61,41z"/>
</svg>
