<?xml version="1.0" encoding="utf-8"?>
<!-- Generator: Adobe Illustrator 16.0.4, SVG Export Plug-In . SVG Version: 6.00 Build 0)  -->
<!DOCTYPE svg PUBLIC "-//W3C//DTD SVG 1.0//EN" "http://www.w3.org/TR/2001/REC-SVG-20010904/DTD/svg10.dtd">
<svg version="1.0" id="Layer_1" xmlns="http://www.w3.org/2000/svg" xmlns:xlink="http://www.w3.org/1999/xlink" x="0px" y="0px"
	 width="90px" height="90px" viewBox="0 0 90 90" style="enable-background:new 0 0 90 90;" xml:space="preserve">
<g>
	<g>
		<path style="fill:#D1D1D1;" d="M70.231,37.9c-1.431-10.033-10.153-17.768-20.764-17.888C49.418,20.007,49.325,20,49.217,20
			c-9.348,0-17.26,5.913-20.101,14.12c-5.136,1.198-9.323,4.744-11.327,9.417C10.662,43.917,5.005,49.681,5,56.749
			c0.005,7.018,5.569,12.739,12.611,13.204v0.042H20v-1.006c0-1.642,1.361-2.984,3.047-2.989h10.901
			c1.682,0.005,3.048,1.343,3.052,2.987V70h5.923v-1c0-1.664,1.387-3.019,3.077-3.019h18c1.694,0,3.075,1.35,3.075,3.019v0.995
			h2.621V69.94C78.247,69.365,85,62.417,85,53.902C85,45.566,78.521,38.723,70.231,37.9z M45,59.965
			c-0.004,1.67-1.378,3.03-3.062,3.035H13.062C11.374,63,10,61.635,10,59.965v-1.927C10,56.367,11.368,55,13.056,55h28.879
			c1.688,0,3.062,1.362,3.065,3.038V59.965z M58,59.992C57.995,61.655,56.68,63,55.066,63h-3.128C50.315,63,49,61.652,49,59.992
			v-1.98C49,56.351,50.315,55,51.938,55h3.128c1.613,0,2.929,1.346,2.934,3.006V59.992z M77.889,63H66.116
			C64.395,62.995,63,61.647,63,59.992v-1.98c0-1.656,1.39-3.001,3.106-3.011l11.782,0.005c1.711,0,3.111,1.346,3.111,3.006v1.98
			C81,61.647,79.604,62.995,77.889,63z"/>
	</g>
</g>
<path style="fill:#FFFFFF;" d="M43,59.848v-1.691c-0.005-0.638-0.581-1.152-1.303-1.157H13.303C12.581,57.004,12,57.523,12,58.157
	v1.691C12,60.486,12.586,61,13.303,61h28.395C42.419,60.996,42.995,60.486,43,59.848z"/>
<path style="fill:#FFFFFF;" d="M45.697,78h-28.39C16.591,78.004,16,78.516,16,79.156v1.68c0,0.642,0.586,1.16,1.308,1.164h28.39
	C46.424,81.996,47,81.473,47,80.836v-1.68C47,78.516,46.419,78.004,45.697,78z"/>
<path style="fill:#FFFFFF;" d="M46.231,72h17.542C64.447,72,65,71.485,65,70.846v-1.688C65,68.518,64.452,68,63.773,68H46.231
	C45.553,68.004,45,68.518,45,69.159v1.688C45,71.485,45.553,72,46.231,72z"/>
<path style="fill:#FFFFFF;" d="M73.712,78H55.293C54.58,78,54,78.513,54,79.158v1.688C54,81.48,54.575,82,55.293,82h18.419
	C74.424,82,75,81.48,75,80.846v-1.688C75,78.513,74.424,78.005,73.712,78z"/>
<path style="fill:#FFFFFF;" d="M23.201,68C22.534,68,22,68.505,22,69.127v1.746C22,71.495,22.534,72,23.201,72h10.597
	C34.465,72,35,71.495,35,70.873v-1.746C35,68.505,34.465,68,33.798,68H23.201z"/>
<path style="fill:#FFFFFF;" d="M77.71,57H66.289C65.575,57,65,57.505,65,58.13v1.739c0,0.626,0.575,1.13,1.289,1.13H77.71
	c0.709,0,1.29-0.504,1.29-1.13V58.13C79,57.505,78.419,57,77.71,57z"/>
<path style="fill:#FFFFFF;" d="M52.116,61h2.773c0.611,0,1.11-0.504,1.11-1.13V58.13c0-0.625-0.499-1.13-1.11-1.13h-2.773
	C51.499,57,51,57.505,51,58.13v1.739C51,60.496,51.499,61,52.116,61z"/>
</svg>
