<?xml version="1.0" encoding="utf-8"?>
<!-- Generator: Adobe Illustrator 16.0.4, SVG Export Plug-In . SVG Version: 6.00 Build 0)  -->
<!DOCTYPE svg PUBLIC "-//W3C//DTD SVG 1.0//EN" "http://www.w3.org/TR/2001/REC-SVG-20010904/DTD/svg10.dtd">
<svg version="1.0" id="Layer_1" xmlns="http://www.w3.org/2000/svg" xmlns:xlink="http://www.w3.org/1999/xlink" x="0px" y="0px"
	 width="90px" height="90px" viewBox="0 0 90 90" style="enable-background:new 0 0 90 90;" xml:space="preserve">
<polygon style="fill:#FFFFFF;" points="49.4,56 35.455,56 29.877,69.987 40.108,69.987 33.853,86.962 54.123,64.165 43.954,64.165 
	"/>
<path style="fill:#FFFFFF;" d="M33.04,44.73c-0.179-0.179-0.474-0.239-0.845-0.142l-12.784,3.435l-1.083,0.291
	c-1.269,0.415-2.463,1.12-3.472,2.129c-3.443,3.443-3.445,9.027,0,12.471c3.442,3.439,9.025,3.439,12.469,0
	c1.006-1.007,1.71-2.198,2.13-3.466l0.293-1.095l3.433-12.781C33.279,45.206,33.219,44.908,33.04,44.73z"/>
<path style="fill:#D1D1D1;" d="M70.12,22.18C68.855,12.017,60.136,4.132,49.511,4.012C49.429,4.009,49.348,4,49.265,4
	c-9.339,0-17.243,6.004-19.986,14.303c-5.251,1.149-9.531,4.803-11.495,9.633C10.684,28.173,5,33.903,5,40.954
	c0,4.704,2.534,8.808,6.321,11.099c0.524-1.106,1.229-2.132,2.121-3.023c1.203-1.204,2.638-2.084,4.264-2.615l13.971-3.757
	c0.293-0.077,0.576-0.115,0.852-0.115c0.743,0,1.427,0.275,1.926,0.774c0.692,0.688,0.94,1.728,0.658,2.776L32.989,54h16.521h1.545
	c0.283-2.312,1.301-4.553,3.072-6.324c1.202-1.201,2.636-2.081,4.262-2.615l13.974-3.757c0.291-0.077,0.575-0.115,0.853-0.115
	c0.742,0,1.425,0.274,1.924,0.773c0.693,0.697,0.938,1.734,0.658,2.778l-2.293,8.542C80.152,51.305,85,45.253,85,38.057
	C85,29.685,78.445,22.832,70.12,22.18z"/>
<path style="fill:#FFFFFF;" d="M73.726,43.376c-0.178-0.178-0.472-0.239-0.844-0.141L60.099,46.67l-1.085,0.291
	c-1.27,0.417-2.464,1.122-3.472,2.129c-3.443,3.443-3.443,9.026,0,12.47c3.444,3.444,9.026,3.444,12.471,0
	c1.006-1.007,1.71-2.197,2.13-3.464L70.434,57l3.433-12.778C73.966,43.851,73.903,43.555,73.726,43.376z"/>
</svg>
