<?xml version="1.0" encoding="utf-8"?>
<!-- Generator: Adobe Illustrator 16.0.4, SVG Export Plug-In . SVG Version: 6.00 Build 0)  -->
<!DOCTYPE svg PUBLIC "-//W3C//DTD SVG 1.0//EN" "http://www.w3.org/TR/2001/REC-SVG-20010904/DTD/svg10.dtd">
<svg version="1.0" id="Layer_1" xmlns="http://www.w3.org/2000/svg" xmlns:xlink="http://www.w3.org/1999/xlink" x="0px" y="0px"
	 width="90px" height="90px" viewBox="0 0 90 90" style="enable-background:new 0 0 90 90;" xml:space="preserve">
<g>
	<g>
		<path style="fill:#EDEDED;" d="M38.968,76.974v4.088c0,2.166,1.773,3.938,3.94,3.938h4.183c2.167,0,3.938-1.772,3.938-3.938
			v-4.088c-1.957,0.368-3.967,0.58-6.029,0.58C42.935,77.554,40.924,77.342,38.968,76.974z"/>
		<path style="fill:#F1F2F2;" d="M51.029,13.025V8.938C51.029,6.772,49.257,5,47.091,5h-4.183c-2.167,0-3.94,1.772-3.94,3.938v4.087
			c1.957-0.365,3.967-0.58,6.032-0.58C47.062,12.445,49.072,12.66,51.029,13.025z"/>
		<path style="fill:#F1F2F2;" d="M18.118,26.645c2.288-3.344,5.185-6.239,8.531-8.529l-2.884-2.88c-1.533-1.533-4.038-1.533-5.569,0
			l-2.96,2.959c-1.533,1.533-1.533,4.037,0,5.57L18.118,26.645z"/>
		<path style="fill:#EDEDED;" d="M71.88,63.351c-2.286,3.346-5.183,6.241-8.529,8.529l2.883,2.881c1.531,1.532,4.038,1.532,5.571,0
			l2.958-2.957c1.531-1.533,1.531-4.04,0-5.572L71.88,63.351z"/>
		<path style="fill:#F1F2F2;" d="M13.025,51.032c-0.368-1.958-0.581-3.971-0.581-6.032s0.213-4.076,0.581-6.032H8.938
			C6.772,38.968,5,40.743,5,42.909v4.182c0,2.17,1.772,3.941,3.938,3.941H13.025z"/>
		<path style="fill:#EDEDED;" d="M81.058,38.968h-4.083c0.365,1.957,0.58,3.971,0.58,6.032s-0.214,4.074-0.58,6.032h4.083
			c2.168,0,3.942-1.771,3.942-3.941v-4.182C85,40.743,83.226,38.968,81.058,38.968z"/>
		<path style="fill:#EDEDED;" d="M74.763,18.195l-1.248-1.249l-1.71-1.71c-1.533-1.531-4.04-1.531-5.571,0l-2.883,2.882
			c1.763,1.206,3.397,2.584,4.887,4.104c1.338,1.365,2.561,2.843,3.642,4.427l2.882-2.883
			C76.294,22.233,76.294,19.728,74.763,18.195z"/>
		<path style="fill:#EDEDED;" d="M22.223,68.239c-1.521-1.491-2.9-3.125-4.106-4.888l-2.88,2.883c-1.533,1.533-1.533,4.037,0,5.57
			l1.71,1.712l1.247,1.248c1.534,1.53,4.04,1.53,5.572,0l2.882-2.88C25.065,70.801,23.587,69.578,22.223,68.239z"/>
		<path style="fill:#EDEDED;" d="M68.244,22.216C62.335,16.189,54.106,12.445,45,12.445c-17.979,0-32.556,14.577-32.556,32.555
			c0,9.108,3.744,17.337,9.772,23.246c5.872,5.755,13.911,9.309,22.783,9.309c17.979,0,32.555-14.574,32.555-32.554
			C77.555,36.128,74,28.089,68.244,22.216z"/>
		<path style="fill:#D1D3D4;" d="M13.025,51.032c-0.368-1.958-0.581-3.971-0.581-6.032s0.213-4.076,0.581-6.032h-1.699
			c-0.352,1.964-0.563,3.971-0.563,6.032s0.212,4.07,0.563,6.032H13.025z"/>
		<path style="fill:#CECECE;" d="M22.223,68.239c-0.741-0.727-1.447-1.488-2.118-2.281c-0.357,0.475-0.735,0.889-1.256,1.098
			c0.696,0.82,1.43,1.607,2.197,2.36c1.363,1.337,2.828,2.571,4.4,3.667l1.201-1.199C25.065,70.801,23.587,69.578,22.223,68.239z"/>
		<path style="fill:#D1D3D4;" d="M51.029,13.025v-1.699c-1.96-0.348-3.969-0.563-6.029-0.563c-2.062,0-4.07,0.215-6.032,0.563v1.699
			c1.957-0.365,3.967-0.58,6.032-0.58C47.062,12.445,49.072,12.66,51.029,13.025z"/>
		<path style="fill:#D1D3D4;" d="M26.649,18.116l-1.203-1.199c-3.323,2.318-6.21,5.206-8.529,8.529l1.201,1.199
			C20.406,23.3,23.303,20.405,26.649,18.116z"/>
		<path style="fill:#CECECE;" d="M76.975,38.968c0.365,1.957,0.58,3.971,0.58,6.032s-0.214,4.074-0.58,6.032h1.699
			c0.348-1.962,0.562-3.971,0.562-6.032s-0.214-4.068-0.562-6.032H76.975z"/>
		<path style="fill:#CECECE;" d="M38.968,76.974v1.7c1.962,0.348,3.971,0.562,6.032,0.562c2.06,0,4.069-0.213,6.029-0.562v-1.7
			c-1.957,0.368-3.967,0.58-6.029,0.58C42.935,77.554,40.924,77.342,38.968,76.974z"/>
		<path style="fill:#CECECE;" d="M63.351,71.88l1.203,1.199c3.323-2.317,6.21-5.205,8.529-8.527l-1.203-1.201
			C69.594,66.697,66.698,69.592,63.351,71.88z"/>
		<path style="fill:#CECECE;" d="M69.414,21.046c-0.677-0.69-1.384-1.349-2.115-1.981c-0.328,0.455-0.62,0.963-0.995,1.347
			c0.667,0.58,1.315,1.179,1.934,1.81c1.338,1.365,2.561,2.843,3.642,4.427l1.201-1.201C71.985,23.875,70.751,22.409,69.414,21.046z
			"/>
		<path style="fill:#FFFFFF;" d="M71.805,15.235c-1.533-1.531-4.04-1.531-5.571,0l-2.883,2.882
			c-3.641-2.491-7.82-4.248-12.322-5.093V8.938C51.029,6.772,49.257,5,47.091,5h-4.183c-2.167,0-3.94,1.772-3.94,3.938v4.087
			c-4.5,0.845-8.678,2.602-12.319,5.091l-2.884-2.88c-1.533-1.533-4.038-1.533-5.569,0l-2.96,2.959c-1.533,1.533-1.533,4.037,0,5.57
			l2.882,2.88c-2.491,3.645-4.248,7.821-5.093,12.323H8.938C6.772,38.968,5,40.743,5,42.909v4.182c0,2.17,1.772,3.941,3.938,3.941
			h4.087c0.845,4.5,2.602,8.678,5.091,12.319l-2.88,2.883c-1.533,1.533-1.533,4.037,0,5.57l1.71,1.712l28.292-28.292l28.277-28.278
			L71.805,15.235z"/>
		<polygon style="fill:#FFFFFF;" points="73.515,16.946 45.237,45.224 73.515,16.946 		"/>
	</g>
	<path style="fill:#EDEDED;" d="M18.116,63.351l-1.199,1.201c1.222,1.752,2.61,3.374,4.129,4.864l1.177-1.177
		C20.702,66.749,19.323,65.114,18.116,63.351z"/>
	<path style="fill:#EDEDED;" d="M13.025,51.032c-0.368-1.958-0.581-3.971-0.581-6.032s0.213-4.076,0.581-6.032h-1.699
		c-0.352,1.964-0.563,3.971-0.563,6.032s0.212,4.07,0.563,6.032H13.025z"/>
	<path style="fill:#EDEDED;" d="M51.029,13.025v-1.699c-1.96-0.348-3.969-0.563-6.029-0.563c-2.062,0-4.07,0.215-6.032,0.563v1.699
		c1.957-0.365,3.967-0.58,6.032-0.58C47.062,12.445,49.072,12.66,51.029,13.025z"/>
	<path style="fill:#EDEDED;" d="M26.649,18.116l-1.203-1.199c-3.323,2.318-6.21,5.206-8.529,8.529l1.201,1.199
		C20.406,23.3,23.303,20.405,26.649,18.116z"/>
	<path style="fill:#EDEDED;" d="M64.545,16.924l-1.199,1.202c1.767,1.201,3.405,2.575,4.899,4.091l1.173-1.179
		C67.924,19.523,66.3,18.14,64.545,16.924z"/>
</g>
</svg>
