<?xml version="1.0" encoding="utf-8"?>
<!-- Generator: Adobe Illustrator 16.0.4, SVG Export Plug-In . SVG Version: 6.00 Build 0)  -->
<!DOCTYPE svg PUBLIC "-//W3C//DTD SVG 1.0//EN" "http://www.w3.org/TR/2001/REC-SVG-20010904/DTD/svg10.dtd">
<svg version="1.0" id="Layer_1" xmlns="http://www.w3.org/2000/svg" xmlns:xlink="http://www.w3.org/1999/xlink" x="0px" y="0px"
	 width="90px" height="90px" viewBox="0 0 90 90" style="enable-background:new 0 0 90 90;" xml:space="preserve">
<g>
	<g>
		<path style="fill:#EDEDED;" d="M45.722,71.978v3.577c0,1.896,1.551,3.446,3.448,3.446h3.66c1.896,0,3.446-1.55,3.446-3.446v-3.577
			c-1.712,0.322-3.472,0.507-5.275,0.507C49.193,72.485,47.434,72.299,45.722,71.978z"/>
		<path style="fill:#F1F2F2;" d="M56.275,16.022v-3.576C56.275,10.55,54.725,9,52.83,9h-3.66c-1.896,0-3.448,1.55-3.448,3.446v3.576
			c1.712-0.32,3.471-0.508,5.278-0.508C52.804,15.514,54.563,15.702,56.275,16.022z"/>
		<path style="fill:#F1F2F2;" d="M27.479,27.939c2.001-2.926,4.536-5.459,7.464-7.463l-2.524-2.52c-1.341-1.342-3.533-1.342-4.873,0
			l-2.59,2.589c-1.342,1.342-1.342,3.532,0,4.874L27.479,27.939z"/>
		<path style="fill:#EDEDED;" d="M74.521,60.057c-2,2.928-4.535,5.461-7.463,7.463l2.522,2.521c1.339,1.34,3.533,1.34,4.875,0
			l2.588-2.587c1.34-1.341,1.34-3.535,0-4.875L74.521,60.057z"/>
		<path style="fill:#F1F2F2;" d="M23.022,49.278c-0.322-1.714-0.509-3.475-0.509-5.278s0.187-3.566,0.509-5.278h-3.576
			C17.55,38.722,16,40.275,16,42.17v3.659c0,1.899,1.55,3.449,3.446,3.449H23.022z"/>
		<path style="fill:#EDEDED;" d="M82.551,38.722h-3.573c0.32,1.712,0.507,3.475,0.507,5.278s-0.188,3.564-0.507,5.278h3.573
			c1.897,0,3.449-1.55,3.449-3.449V42.17C86,40.275,84.448,38.722,82.551,38.722z"/>
		<path style="fill:#EDEDED;" d="M77.042,20.545l-1.092-1.093l-1.496-1.497c-1.341-1.34-3.535-1.34-4.875,0l-2.522,2.522
			c1.543,1.055,2.972,2.261,4.276,3.591c1.17,1.194,2.241,2.487,3.187,3.874l2.522-2.522C78.382,24.079,78.382,21.887,77.042,20.545
			z"/>
		<path style="fill:#EDEDED;" d="M31.07,64.334c-1.331-1.305-2.538-2.734-3.593-4.277l-2.52,2.522c-1.342,1.341-1.342,3.533,0,4.874
			l1.496,1.499l1.091,1.092c1.342,1.339,3.535,1.339,4.875,0l2.522-2.52C33.557,66.576,32.264,65.505,31.07,64.334z"/>
		<path style="fill:#EDEDED;" d="M71.339,24.064c-5.17-5.274-12.371-8.55-20.339-8.55c-15.732,0-28.486,12.754-28.486,28.486
			c0,7.969,3.276,15.17,8.551,20.34c5.138,5.036,12.172,8.145,19.936,8.145c15.731,0,28.485-12.752,28.485-28.485
			C79.485,36.237,76.375,29.203,71.339,24.064z"/>
		<path style="fill:#D1D3D4;" d="M23.022,49.278c-0.322-1.714-0.509-3.475-0.509-5.278s0.187-3.566,0.509-5.278h-1.487
			c-0.308,1.719-0.493,3.475-0.493,5.278s0.185,3.562,0.493,5.278H23.022z"/>
		<path style="fill:#CECECE;" d="M31.07,64.334c-0.648-0.636-1.266-1.302-1.853-1.996c-0.312,0.415-0.644,0.778-1.099,0.961
			c0.609,0.718,1.251,1.406,1.922,2.065c1.192,1.17,2.475,2.25,3.85,3.208l1.051-1.049C33.557,66.576,32.264,65.505,31.07,64.334z"
			/>
		<path style="fill:#D1D3D4;" d="M56.275,16.022v-1.487c-1.715-0.304-3.473-0.493-5.275-0.493c-1.804,0-3.562,0.188-5.278,0.493
			v1.487c1.712-0.32,3.471-0.508,5.278-0.508C52.804,15.514,54.563,15.702,56.275,16.022z"/>
		<path style="fill:#D1D3D4;" d="M34.943,20.476l-1.053-1.049c-2.908,2.029-5.434,4.555-7.463,7.463l1.051,1.049
			C29.48,25.013,32.015,22.479,34.943,20.476z"/>
		<path style="fill:#CECECE;" d="M78.978,38.722c0.32,1.712,0.507,3.475,0.507,5.278s-0.188,3.564-0.507,5.278h1.487
			c0.304-1.717,0.492-3.475,0.492-5.278s-0.188-3.56-0.492-5.278H78.978z"/>
		<path style="fill:#CECECE;" d="M45.722,71.978v1.487c1.717,0.304,3.475,0.491,5.278,0.491c1.803,0,3.56-0.187,5.275-0.491v-1.487
			c-1.712,0.322-3.472,0.507-5.275,0.507C49.193,72.485,47.434,72.299,45.722,71.978z"/>
		<path style="fill:#CECECE;" d="M67.057,67.521l1.053,1.049c2.908-2.027,5.434-4.554,7.463-7.461l-1.052-1.051
			C72.52,62.985,69.985,65.518,67.057,67.521z"/>
		<path style="fill:#CECECE;" d="M72.362,23.041c-0.592-0.604-1.211-1.18-1.851-1.733c-0.287,0.398-0.542,0.843-0.87,1.178
			c0.583,0.507,1.151,1.032,1.692,1.584c1.17,1.194,2.241,2.487,3.187,3.874l1.051-1.051C74.612,25.516,73.533,24.233,72.362,23.041
			z"/>
		<path style="fill:#FFFFFF;" d="M74.454,17.956c-1.341-1.34-3.535-1.34-4.875,0l-2.522,2.522c-3.186-2.18-6.843-3.717-10.782-4.456
			v-3.576C56.275,10.55,54.725,9,52.83,9h-3.66c-1.896,0-3.448,1.55-3.448,3.446v3.576c-3.938,0.739-7.593,2.276-10.779,4.454
			l-2.524-2.52c-1.341-1.342-3.533-1.342-4.873,0l-2.59,2.589c-1.342,1.342-1.342,3.532,0,4.874l2.522,2.52
			c-2.18,3.189-3.717,6.844-4.456,10.783h-3.576C17.55,38.722,16,40.275,16,42.17v3.659c0,1.899,1.55,3.449,3.446,3.449h3.576
			c0.739,3.938,2.276,7.593,4.454,10.779l-2.52,2.522c-1.342,1.341-1.342,3.533,0,4.874l1.496,1.499l24.755-24.756L75.95,19.453
			L74.454,17.956z"/>
		<polygon style="fill:#FFFFFF;" points="75.95,19.453 51.208,44.196 75.95,19.453 		"/>
	</g>
	<path style="fill:#EDEDED;" d="M27.477,60.057l-1.049,1.051c1.069,1.533,2.284,2.952,3.613,4.256l1.03-1.03
		C29.739,63.03,28.532,61.6,27.477,60.057z"/>
	<path style="fill:#EDEDED;" d="M23.022,49.278c-0.322-1.714-0.509-3.475-0.509-5.278s0.187-3.566,0.509-5.278h-1.487
		c-0.308,1.719-0.493,3.475-0.493,5.278s0.185,3.562,0.493,5.278H23.022z"/>
	<path style="fill:#EDEDED;" d="M56.275,16.022v-1.487c-1.715-0.304-3.473-0.493-5.275-0.493c-1.804,0-3.562,0.188-5.278,0.493
		v1.487c1.712-0.32,3.471-0.508,5.278-0.508C52.804,15.514,54.563,15.702,56.275,16.022z"/>
	<path style="fill:#EDEDED;" d="M34.943,20.476l-1.053-1.049c-2.908,2.029-5.434,4.555-7.463,7.463l1.051,1.049
		C29.48,25.013,32.015,22.479,34.943,20.476z"/>
	<path style="fill:#EDEDED;" d="M68.102,19.434l-1.049,1.052c1.546,1.05,2.979,2.253,4.287,3.579l1.026-1.031
		C71.059,21.708,69.637,20.497,68.102,19.434z"/>
</g>
<path style="fill:#CCCCCC;" d="M69.12,48.178c-1.265-10.161-9.98-18.047-20.608-18.167C48.431,30.01,48.348,30,48.266,30
	c-9.335,0-17.241,6.003-19.987,14.302c-5.251,1.151-9.53,4.804-11.494,9.632C9.686,54.172,4,59.902,4,66.954
	c0,7.045,5.668,12.764,12.747,13.023V80h31.765h20.022v-0.038C77.136,79.594,84,72.625,84,64.058
	C84,55.684,77.444,48.832,69.12,48.178z"/>
<g>
	<path style="fill:#AFAFAF;" d="M69.12,48.178c-1.265-10.161-9.98-18.047-20.608-18.167V80h20.022v-0.038
		C77.136,79.594,84,72.625,84,64.058C84,55.684,77.444,48.832,69.12,48.178z"/>
</g>
</svg>
