<?xml version="1.0" encoding="utf-8"?>
<!-- Generator: Adobe Illustrator 16.0.4, SVG Export Plug-In . SVG Version: 6.00 Build 0)  -->
<!DOCTYPE svg PUBLIC "-//W3C//DTD SVG 1.0//EN" "http://www.w3.org/TR/2001/REC-SVG-20010904/DTD/svg10.dtd">
<svg version="1.0" id="Layer_1" xmlns="http://www.w3.org/2000/svg" xmlns:xlink="http://www.w3.org/1999/xlink" x="0px" y="0px"
	 width="90px" height="90px" viewBox="0 0 90 90" style="enable-background:new 0 0 90 90;" xml:space="preserve">
<g>
	<circle style="fill:#EDEDED;" cx="51" cy="44" r="34"/>
	<path style="fill:#FFFFFF;" d="M50.999,10c-6.722,0-12.982,1.958-18.257,5.324c-3.365,5.274-5.322,11.535-5.322,18.257
		c0,18.777,15.221,33.999,34,33.999c6.721,0,12.981-1.957,18.257-5.321C83.042,56.982,85,50.723,85,44
		C85,25.222,69.776,10,50.999,10z"/>
	<g>
		<g>
			<circle style="fill:#C1C1C1;" cx="29.07" cy="39.807" r="6.375"/>
			<path style="fill:#DDDDDD;" d="M29.07,33.434c-1.26,0-2.434,0.366-3.424,0.997c-0.628,0.99-0.998,2.163-0.998,3.422
				c0,3.522,2.854,6.374,6.375,6.374c1.26,0,2.432-0.365,3.423-0.998c0.632-0.988,0.998-2.162,0.998-3.421
				C35.444,36.287,32.59,33.434,29.07,33.434z"/>
		</g>
	</g>
	<g>
		<circle style="fill:#C1C1C1;" cx="52.549" cy="42.549" r="8.932"/>
		<path style="fill:#DDDDDD;" d="M52.548,33.616c-1.765,0-3.41,0.516-4.796,1.399c-0.883,1.385-1.399,3.029-1.399,4.794
			c0,4.933,4,8.934,8.935,8.934c1.766,0,3.408-0.515,4.795-1.397c0.885-1.387,1.398-3.031,1.398-4.796
			C61.48,37.615,57.481,33.616,52.548,33.616z"/>
	</g>
	<g>
		<circle style="fill:#C1C1C1;" cx="36.84" cy="61.638" r="3.732"/>
		<path style="fill:#DDDDDD;" d="M36.84,57.905c-0.737,0-1.426,0.215-2.005,0.585c-0.37,0.579-0.585,1.266-0.585,2.004
			c0,2.064,1.67,3.733,3.733,3.733c0.737,0,1.424-0.215,2.004-0.583c0.37-0.581,0.585-1.267,0.585-2.006
			C40.572,59.578,38.9,57.905,36.84,57.905z"/>
	</g>
	<g>
		<circle style="fill:#C1C1C1;" cx="66.953" cy="24.384" r="4.578"/>
		<path style="fill:#DDDDDD;" d="M66.954,19.806c-0.907,0-1.749,0.263-2.457,0.716c-0.455,0.709-0.719,1.554-0.719,2.46
			c0,2.525,2.051,4.575,4.575,4.575c0.907,0,1.748-0.262,2.461-0.716c0.452-0.71,0.717-1.552,0.717-2.457
			C71.531,21.856,69.483,19.806,66.954,19.806z"/>
	</g>
	<g>
		<circle style="fill:#C1C1C1;" cx="41.537" cy="19.122" r="2.607"/>
		<path style="fill:#DDDDDD;" d="M41.536,16.516c-0.515,0-0.995,0.15-1.397,0.408c-0.259,0.406-0.411,0.884-0.411,1.401
			c0,1.439,1.167,2.606,2.607,2.606c0.516,0,0.996-0.15,1.401-0.409c0.257-0.403,0.407-0.883,0.407-1.4
			C44.144,17.682,42.975,16.516,41.536,16.516z"/>
	</g>
	<g>
		<path style="fill:#C1C1C1;" d="M80.518,47.493c0,2.625-2.128,4.759-4.754,4.759c-2.629,0-4.757-2.133-4.757-4.759
			c0-2.624,2.128-4.754,4.757-4.754C78.39,42.739,80.518,44.87,80.518,47.493z"/>
		<path style="fill:#DDDDDD;" d="M75.764,42.739c-0.941,0-1.817,0.271-2.552,0.747c-0.475,0.735-0.744,1.608-0.744,2.55
			c0,2.625,2.128,4.754,4.752,4.754c0.939,0,1.815-0.272,2.553-0.741c0.476-0.74,0.745-1.615,0.745-2.557
			C80.518,44.87,78.39,42.739,75.764,42.739z"/>
	</g>
	<g>
		<circle style="fill:#C1C1C1;" cx="61.2" cy="67.001" r="4.098"/>
		<path style="fill:#DDDDDD;" d="M61.199,62.903c-0.81,0-1.562,0.238-2.198,0.643c-0.408,0.635-0.644,1.39-0.644,2.2
			c0,2.262,1.835,4.098,4.099,4.098c0.811,0,1.564-0.235,2.2-0.641c0.406-0.637,0.642-1.392,0.642-2.202
			C65.298,64.739,63.465,62.903,61.199,62.903z"/>
	</g>
</g>
<g>
	<path style="fill:#CCCCCC;" d="M69.12,48.178c-1.265-10.161-9.98-18.047-20.608-18.167C48.431,30.01,48.348,30,48.266,30
		c-9.335,0-17.24,6.003-19.986,14.302c-5.252,1.151-9.531,4.804-11.494,9.632C9.686,54.172,4,59.902,4,66.954
		c0,7.045,5.668,12.764,12.747,13.023V80h31.765h20.022v-0.038C77.137,79.594,84,72.625,84,64.058
		C84,55.684,77.443,48.832,69.12,48.178z"/>
	<path style="fill:#AFAFAF;" d="M69.12,48.178c-1.265-10.161-9.98-18.047-20.608-18.167V80h20.022v-0.038
		C77.137,79.594,84,72.625,84,64.058C84,55.684,77.443,48.832,69.12,48.178z"/>
</g>
</svg>
