<?xml version="1.0" encoding="utf-8"?>
<!-- Generator: Adobe Illustrator 16.0.4, SVG Export Plug-In . SVG Version: 6.00 Build 0)  -->
<!DOCTYPE svg PUBLIC "-//W3C//DTD SVG 1.0//EN" "http://www.w3.org/TR/2001/REC-SVG-20010904/DTD/svg10.dtd">
<svg version="1.0" id="Layer_1" xmlns="http://www.w3.org/2000/svg" xmlns:xlink="http://www.w3.org/1999/xlink" x="0px" y="0px"
	 width="90px" height="90px" viewBox="0 0 90 90" style="enable-background:new 0 0 90 90;" xml:space="preserve">
<g>
	<g>
		<path style="fill:#FFDA24;" d="M80.639,38.576h-3.634c-0.848-4.243-2.516-8.186-4.835-11.662l2.573-2.576
			c0.848-0.85,1.274-1.968,1.274-3.081c0-1.115-0.426-2.233-1.274-3.08l-2.921-2.927l-0.328,0.325l0.328-0.325
			c-0.853-0.845-1.97-1.271-3.083-1.271c-1.113,0-2.23,0.426-3.078,1.271l-2.579,2.576c-3.473-2.319-7.418-3.988-11.666-4.835v-3.64
			C51.417,6.955,49.463,5,47.066,5h-4.133c-2.396,0-4.356,1.955-4.356,4.352v3.642c-4.242,0.845-8.188,2.514-11.66,4.833
			l-2.579-2.576c-0.847-0.845-1.965-1.274-3.083-1.274c-1.113,0-2.23,0.426-3.072,1.274h-0.005l-2.921,2.927
			c-0.848,0.847-1.274,1.965-1.274,3.077c0,1.115,0.426,2.231,1.274,3.081l2.573,2.573c-2.319,3.478-3.982,7.422-4.83,11.667H9.356
			C6.96,38.576,5,40.535,5,42.935v4.133c0,2.399,1.96,4.356,4.356,4.359H13c0.847,4.24,2.511,8.184,4.83,11.659l-2.573,2.576
			c-0.848,0.848-1.274,1.966-1.274,3.081c0,1.11,0.426,2.23,1.274,3.078l2.921,2.927c0.847,0.845,1.965,1.271,3.078,1.271h0.01
			c1.112,0,2.225-0.432,3.072-1.271l2.579-2.579c3.473,2.322,7.418,3.988,11.655,4.835v3.642c0.005,2.399,1.965,4.352,4.361,4.354
			h4.133c2.396-0.002,4.351-1.955,4.351-4.354v-3.642c4.247-0.848,8.193-2.514,11.666-4.835l2.579,2.577
			c0.847,0.842,1.965,1.273,3.078,1.271c1.112,0,2.23-0.429,3.083-1.271l2.921-2.925c0.848-0.847,1.274-1.968,1.274-3.08
			s-0.426-2.233-1.274-3.081l-2.573-2.573c2.319-3.476,3.987-7.419,4.835-11.659h3.634C83.04,51.424,85,49.467,85,47.068v-4.133
			C84.995,40.535,83.04,38.576,80.639,38.576z"/>
	</g>
</g>
</svg>
