<?xml version="1.0" encoding="utf-8"?>
<!-- Generator: Adobe Illustrator 16.0.4, SVG Export Plug-In . SVG Version: 6.00 Build 0)  -->
<!DOCTYPE svg PUBLIC "-//W3C//DTD SVG 1.0//EN" "http://www.w3.org/TR/2001/REC-SVG-20010904/DTD/svg10.dtd">
<svg version="1.0" id="Layer_1" xmlns="http://www.w3.org/2000/svg" xmlns:xlink="http://www.w3.org/1999/xlink" x="0px" y="0px"
	 width="90px" height="90px" viewBox="0 0 90 90" style="enable-background:new 0 0 90 90;" xml:space="preserve">
<g>
	<g>
		<path style="fill:#E8E5C8;" d="M29.378,66.735c0,0.007-0.004,0.019-0.004,0.03c0,2.533,2.05,4.581,4.585,4.581
			c2.298,0,4.188-1.688,4.522-3.89c6.031-0.437,11.568-2.654,16.084-6.137c0.01,2.318,1.89,4.192,4.206,4.192
			c2.329,0,4.206-1.883,4.206-4.208c0-2.247-1.757-4.066-3.977-4.185c2.8-3.252,4.91-7.105,6.113-11.345
			c0.503,0.119,1.03,0.188,1.57,0.188c3.817,0,6.906-3.089,6.906-6.899s-3.089-6.896-6.906-6.896c-0.307,0-0.613,0.025-0.915,0.064
			c-1.799-9.979-8.535-18.238-17.596-22.161C66.02,11.698,79.995,26.692,80,44.958C79.995,64.315,64.308,80,44.956,80
			C28.605,80,14.867,68.795,11,53.641C15.128,60.123,21.677,64.912,29.378,66.735z"/>
	</g>
</g>
</svg>
