<?xml version="1.0" encoding="utf-8"?>
<!-- Generator: Adobe Illustrator 16.0.4, SVG Export Plug-In . SVG Version: 6.00 Build 0)  -->
<!DOCTYPE svg PUBLIC "-//W3C//DTD SVG 1.0//EN" "http://www.w3.org/TR/2001/REC-SVG-20010904/DTD/svg10.dtd">
<svg version="1.0" id="Layer_1" xmlns="http://www.w3.org/2000/svg" xmlns:xlink="http://www.w3.org/1999/xlink" x="0px" y="0px"
	 width="90px" height="90px" viewBox="0 0 90 90" style="enable-background:new 0 0 90 90;" xml:space="preserve">
<path style="fill:#00E1FF;" d="M35.342,53.858c0.374,0.374,0.487,0.869,0.253,1.103L22.233,68.322
	c-0.235,0.236-0.729,0.122-1.104-0.251l-1.47-1.472c-0.374-0.374-0.49-0.87-0.254-1.105l13.361-13.362
	c0.234-0.234,0.731-0.118,1.104,0.255L35.342,53.858z"/>
<path style="fill:#00E1FF;" d="M55.036,54.686c0.373,0.375,0.375,0.981,0.003,1.353l-21.2,21.199
	c-0.374,0.374-0.979,0.372-1.354-0.001l-1.47-1.472c-0.374-0.374-0.378-0.981-0.004-1.355l21.199-21.2
	c0.372-0.372,0.98-0.367,1.354,0.006L55.036,54.686z"/>
<path style="fill:#FFFFFF;" d="M70.12,31.18c-1.267-10.163-9.985-18.048-20.61-18.168C49.428,13.009,49.347,13,49.264,13
	c-9.339,0-17.242,6.003-19.985,14.302c-5.251,1.15-9.532,4.803-11.495,9.632C10.684,37.172,5,42.903,5,49.955
	c0,7.044,5.665,12.763,12.745,13.021V63h1.326l12.281-12.282c0.456-0.456,1.074-0.707,1.741-0.707c0.782,0,1.581,0.351,2.192,0.962
	l1.471,1.47c1.173,1.175,1.284,2.901,0.253,3.931L30.384,63h9.209l11.204-11.204c0.555-0.556,1.295-0.862,2.084-0.862
	c0.792,0,1.537,0.309,2.097,0.869l1.471,1.468c1.153,1.161,1.152,3.034,0.004,4.182L50.906,63h6.229l8.974-8.974
	c0.47-0.47,1.106-0.728,1.791-0.728c0.785,0,1.58,0.344,2.18,0.945l1.471,1.47c1.173,1.175,1.267,2.917,0.215,3.969L68.448,63h1.083
	v-0.038C78.137,62.595,85,55.625,85,47.057C85,38.684,78.445,31.832,70.12,31.18z"/>
<path style="fill:#00E1FF;" d="M70.136,57.128c0.374,0.374,0.47,0.885,0.215,1.141L55.813,72.806
	c-0.256,0.256-0.767,0.16-1.141-0.214l-1.471-1.471c-0.374-0.374-0.473-0.887-0.216-1.143L67.522,55.44
	c0.255-0.255,0.769-0.156,1.143,0.217L70.136,57.128z"/>
<g>
	<circle style="fill:#00E1FF;" cx="14.5" cy="73.5" r="5"/>
</g>
<g>
	<circle style="fill:#00E1FF;" cx="48.292" cy="78" r="5"/>
</g>
<g>
	<circle style="fill:#00E1FF;" cx="27" cy="81.5" r="3.5"/>
</g>
</svg>
