<?xml version="1.0" encoding="utf-8"?>
<!-- Generator: Adobe Illustrator 16.0.4, SVG Export Plug-In . SVG Version: 6.00 Build 0)  -->
<!DOCTYPE svg PUBLIC "-//W3C//DTD SVG 1.0//EN" "http://www.w3.org/TR/2001/REC-SVG-20010904/DTD/svg10.dtd">
<svg version="1.0" id="Layer_1" xmlns="http://www.w3.org/2000/svg" xmlns:xlink="http://www.w3.org/1999/xlink" x="0px" y="0px"
	 width="90px" height="90px" viewBox="0 0 90 90" style="enable-background:new 0 0 90 90;" xml:space="preserve">
<g>
	<path style="fill:#E8E5C8;" d="M63.593,24.916c0.285-0.037,0.574-0.061,0.862-0.061c3.596,0,6.506,2.914,6.506,6.509
		c0,3.536-2.815,6.408-6.329,6.502c3.633,3.224,6.25,7.562,7.224,12.512c0.706,0.118,1.393,0.291,2.068,0.488
		c1.968-4.237,3.075-8.958,3.076-13.939C76.995,19.688,63.83,5.536,47.018,4C55.554,7.702,61.898,15.497,63.593,24.916z"/>
	<path style="fill:#E8E5C8;" d="M18.772,52.48c-2.668-2.031-4.968-4.52-6.772-7.358c0.963,3.78,2.581,7.296,4.717,10.429
		C17.299,54.452,17.986,53.425,18.772,52.48z"/>
</g>
<path style="fill:#FFFFFF;" d="M70.12,52.178c-1.265-10.161-9.98-18.047-20.608-18.167C49.431,34.01,49.348,34,49.266,34
	c-9.335,0-17.24,6.003-19.986,14.302c-5.252,1.151-9.531,4.804-11.494,9.632C10.686,58.172,5,63.902,5,70.954
	c0,7.045,5.668,12.764,12.747,13.023V84h31.765h20.022v-0.038C78.137,83.594,85,76.625,85,68.058
	C85,59.684,78.443,52.832,70.12,52.178z"/>
</svg>
