<?xml version="1.0" encoding="utf-8"?>
<!-- Generator: Adobe Illustrator 16.0.4, SVG Export Plug-In . SVG Version: 6.00 Build 0)  -->
<!DOCTYPE svg PUBLIC "-//W3C//DTD SVG 1.0//EN" "http://www.w3.org/TR/2001/REC-SVG-20010904/DTD/svg10.dtd">
<svg version="1.0" id="Layer_1" xmlns="http://www.w3.org/2000/svg" xmlns:xlink="http://www.w3.org/1999/xlink" x="0px" y="0px"
	 width="90px" height="90px" viewBox="0 0 90 90" style="enable-background:new 0 0 90 90;" xml:space="preserve">
<path style="fill:#FFDA24;" d="M82.184,38.379h-3.179c-0.742-3.712-2.202-7.163-4.231-10.205l2.252-2.253
	c0.742-0.744,1.115-1.723,1.115-2.696c0-0.976-0.373-1.954-1.115-2.695l-2.556-2.562c-0.746-0.739-1.724-1.112-2.697-1.112
	c-0.974,0-1.952,0.373-2.693,1.112l-2.256,2.254c-3.039-2.029-6.491-3.489-10.208-4.23v-3.185c0-2.097-1.71-3.808-3.807-3.808
	h-3.616c-2.097,0-3.812,1.71-3.812,3.808v3.187c-3.711,0.739-7.164,2.199-10.203,4.228l-2.256-2.254
	c-0.741-0.739-1.719-1.115-2.697-1.115c-0.974,0-1.951,0.373-2.688,1.115h-0.005l-2.556,2.562c-0.742,0.741-1.115,1.719-1.115,2.692
	c0,0.976,0.373,1.952,1.115,2.696l2.252,2.251c-2.029,3.043-3.485,6.494-4.226,10.209h-3.188c-2.097,0-3.812,1.714-3.812,3.814
	v3.616c0,1.22,0.589,2.297,1.486,2.996c2.335-2.948,5.567-5.128,9.27-6.182C30.149,33.831,38.655,28,48.266,28
	c0.09,0,0.18,0.004,0.27,0.01c10.934,0.124,20.263,7.913,22.32,18.368c3.016,0.504,5.767,1.762,8.082,3.544
	c0.021-0.1,0.047-0.198,0.067-0.298h3.179C84.285,49.621,86,47.909,86,45.81v-3.616C85.995,40.093,84.285,38.379,82.184,38.379z"/>
<path style="fill:#FFFFFF;" d="M69.12,48.178c-1.265-10.161-9.98-18.047-20.608-18.167C48.431,30.01,48.348,30,48.266,30
	c-9.335,0-17.241,6.003-19.987,14.302c-5.251,1.151-9.53,4.804-11.494,9.632C9.686,54.172,4,59.902,4,66.954
	c0,7.045,5.668,12.764,12.747,13.023V80h31.765h20.022v-0.038C77.136,79.594,84,72.625,84,64.058
	C84,55.684,77.444,48.832,69.12,48.178z"/>
</svg>
