<?xml version="1.0" encoding="utf-8"?>
<!-- Generator: Adobe Illustrator 16.0.4, SVG Export Plug-In . SVG Version: 6.00 Build 0)  -->
<!DOCTYPE svg PUBLIC "-//W3C//DTD SVG 1.0//EN" "http://www.w3.org/TR/2001/REC-SVG-20010904/DTD/svg10.dtd">
<svg version="1.0" id="Layer_1" xmlns="http://www.w3.org/2000/svg" xmlns:xlink="http://www.w3.org/1999/xlink" x="0px" y="0px"
	 width="90px" height="90px" viewBox="0 0 90 90" style="enable-background:new 0 0 90 90;" xml:space="preserve">
<path style="fill:#00E1FF;" d="M73.728,56.377c-0.178-0.179-0.472-0.239-0.845-0.141L60.1,59.671l-1.085,0.291
	c-1.27,0.417-2.465,1.122-3.471,2.129c-3.444,3.443-3.444,9.026,0,12.471c3.443,3.443,9.026,3.443,12.47,0
	c1.006-1.007,1.708-2.197,2.129-3.464l0.291-1.096l3.433-12.779C73.967,56.852,73.906,56.556,73.728,56.377z"/>
<path style="fill:#FFFFFF;" d="M70.12,31.181c-1.263-10.163-9.982-18.049-20.61-18.169C49.428,13.009,49.347,13,49.265,13
	c-9.338,0-17.243,6.003-19.987,14.302c-5.252,1.15-9.533,4.804-11.496,9.633C10.683,37.173,5,42.903,5,49.955
	c0,6.357,4.619,11.621,10.724,12.779l-0.134-0.499c-0.173-0.662-0.036-1.334,0.32-1.861c-0.902-0.673-1.184-1.938-0.613-2.942
	l0.844-1.458c0.39-0.691,1.147-1.134,1.965-1.134c0.308,0,0.612,0.062,0.894,0.184c0.278-0.578,0.795-1.033,1.457-1.209l1.861-0.498
	l0.334-0.01c0.103-0.178,0.229-0.342,0.377-0.486l1.165-1.164c0.399-0.413,0.993-0.664,1.604-0.664c0.056,0,0.112,0.002,0.167,0.006
	C26.1,49.874,27.06,49,28.22,49h1.667c1.161,0,2.121,0.874,2.256,1.998c0.055-0.004,0.111-0.006,0.167-0.006
	c0.605,0,1.175,0.235,1.604,0.661l1.182,1.185c0.115,0.113,0.218,0.239,0.306,0.377c0.077-0.008,0.155-0.012,0.233-0.012h0.272
	l0.335,0.083l1.593,0.425c0.673,0.179,1.197,0.647,1.472,1.238c0.222-0.071,0.458-0.109,0.696-0.109
	c0.818,0,1.575,0.442,1.977,1.153l0.824,1.427c0.303,0.522,0.384,1.134,0.228,1.721c-0.115,0.432-0.349,0.811-0.673,1.103
	c0.375,0.532,0.52,1.217,0.34,1.887L42.464,63h7.045h2.859c0.476-0.839,1.06-1.623,1.761-2.323c1.199-1.2,2.632-2.08,4.261-2.615
	l13.973-3.757c0.293-0.077,0.578-0.115,0.855-0.115c0.744,0,1.429,0.275,1.927,0.777c0.688,0.689,0.934,1.727,0.654,2.771
	l-1.112,4.145C80.718,59.571,85,53.819,85,47.057C85,38.685,78.445,31.832,70.12,31.181z"/>
<path style="fill:#00E1FF;" d="M40.972,70.001l-3.075-1.776l2.677-0.718c0.144-0.037,0.23-0.187,0.192-0.331l-0.433-1.611
	c-0.037-0.144-0.187-0.23-0.33-0.191l-4.813,1.289l-3.926-2.267l3.926-2.269l4.813,1.291c0.144,0.039,0.293-0.048,0.33-0.191
	l0.433-1.613c0.038-0.143-0.048-0.291-0.192-0.331l-2.677-0.716l3.075-1.776c0.128-0.074,0.173-0.241,0.099-0.37l-0.834-1.444
	c-0.073-0.13-0.241-0.174-0.368-0.1l-3.077,1.775l0.719-2.677c0.038-0.145-0.047-0.293-0.191-0.331l-1.613-0.431
	c-0.144-0.04-0.294,0.046-0.332,0.189l-1.291,4.813l-3.925,2.267v-4.328l3.521-3.522c0.106-0.104,0.106-0.277,0-0.381l-1.177-1.18
	c-0.106-0.105-0.279-0.105-0.384,0l-1.959,1.959v-3.76c0-0.148-0.122-0.271-0.272-0.271H28.22c-0.149,0-0.271,0.122-0.271,0.271
	v3.76l-1.961-1.959c-0.103-0.105-0.278-0.105-0.38,0l-1.181,1.18c-0.106,0.104-0.106,0.276,0,0.381l3.522,3.522v4.328l-3.747-2.165
	l-1.289-4.811c-0.038-0.144-0.188-0.23-0.333-0.19l-1.612,0.432c-0.144,0.038-0.229,0.187-0.192,0.331l0.719,2.676l-3.255-1.879
	c-0.13-0.074-0.296-0.03-0.37,0.1l-0.836,1.444c-0.073,0.129-0.03,0.296,0.099,0.37l3.256,1.879l-2.677,0.717
	c-0.144,0.04-0.229,0.189-0.191,0.333l0.431,1.611c0.042,0.143,0.189,0.23,0.333,0.191l4.812-1.289l3.746,2.163l-3.746,2.163
	l-4.812-1.291c-0.144-0.037-0.291,0.049-0.331,0.192l-0.433,1.612c-0.038,0.144,0.047,0.293,0.191,0.33l2.677,0.718l-3.256,1.881
	c-0.129,0.073-0.172,0.239-0.099,0.369l0.836,1.445c0.073,0.129,0.239,0.174,0.37,0.099l3.255-1.879l-0.719,2.676
	c-0.037,0.146,0.048,0.293,0.192,0.331l1.612,0.434c0.144,0.037,0.295-0.049,0.333-0.192l1.289-4.811l3.747-2.164v4.534
	l-3.522,3.522c-0.106,0.104-0.106,0.276,0,0.382l1.181,1.181c0.102,0.105,0.277,0.105,0.38,0l1.961-1.96v3.553
	c0,0.147,0.122,0.271,0.271,0.271h1.667c0.151,0,0.272-0.123,0.272-0.271v-3.553l1.959,1.96c0.104,0.105,0.278,0.105,0.384,0
	l1.177-1.181c0.106-0.105,0.106-0.277,0-0.382l-3.521-3.522v-4.534l3.925,2.269l1.291,4.81c0.037,0.145,0.188,0.23,0.332,0.192
	l1.613-0.432c0.144-0.038,0.229-0.188,0.191-0.332l-0.719-2.677l3.077,1.775c0.127,0.075,0.295,0.03,0.368-0.099l0.834-1.445
	C41.146,70.24,41.101,70.074,40.972,70.001z"/>
</svg>
