<?xml version="1.0" encoding="utf-8"?>
<!-- Generator: Adobe Illustrator 16.0.4, SVG Export Plug-In . SVG Version: 6.00 Build 0)  -->
<!DOCTYPE svg PUBLIC "-//W3C//DTD SVG 1.0//EN" "http://www.w3.org/TR/2001/REC-SVG-20010904/DTD/svg10.dtd">
<svg version="1.0" id="Layer_1" xmlns="http://www.w3.org/2000/svg" xmlns:xlink="http://www.w3.org/1999/xlink" x="0px" y="0px"
	 width="90px" height="90px" viewBox="0 0 90 90" style="enable-background:new 0 0 90 90;" xml:space="preserve">
<path style="fill:#00E1FF;" d="M50.932,79.221L49.4,78.359l1.333-0.349c0.071-0.019,0.115-0.092,0.097-0.161l-0.216-0.781
	c-0.018-0.071-0.094-0.112-0.166-0.094l-2.394,0.626L46.1,76.5l1.954-1.101l2.394,0.626c0.072,0.019,0.147-0.022,0.166-0.094
	l0.216-0.781c0.019-0.071-0.025-0.141-0.097-0.161L49.4,74.641l1.531-0.861c0.065-0.036,0.087-0.116,0.05-0.179l-0.417-0.702
	c-0.036-0.062-0.118-0.083-0.182-0.047l-1.533,0.86l0.358-1.297c0.018-0.07-0.023-0.144-0.095-0.163l-0.803-0.208
	c-0.071-0.02-0.146,0.023-0.165,0.092l-0.643,2.337L45.55,75.57v-2.1l1.753-1.709c0.052-0.051,0.052-0.133,0-0.185l-0.587-0.573
	c-0.052-0.05-0.139-0.05-0.191,0l-0.975,0.951v-1.824c0-0.072-0.061-0.131-0.136-0.131h-0.83c-0.074,0-0.136,0.059-0.136,0.131
	v1.824l-0.976-0.951c-0.051-0.05-0.137-0.05-0.189,0l-0.589,0.573c-0.052,0.052-0.052,0.134,0,0.185l1.753,1.709v2.1l-1.864-1.049
	l-0.643-2.335c-0.018-0.07-0.091-0.111-0.166-0.094l-0.801,0.211c-0.072,0.018-0.114,0.092-0.096,0.16l0.358,1.299l-1.622-0.911
	c-0.063-0.036-0.147-0.015-0.184,0.047l-0.416,0.702c-0.036,0.062-0.014,0.143,0.05,0.179l1.621,0.913l-1.333,0.348
	c-0.072,0.018-0.114,0.093-0.095,0.161l0.216,0.782c0.018,0.068,0.093,0.111,0.164,0.093l2.396-0.627L43.9,76.5l-1.866,1.051
	l-2.396-0.627c-0.071-0.02-0.146,0.022-0.164,0.093l-0.216,0.782c-0.019,0.07,0.023,0.144,0.095,0.161l1.333,0.348l-1.621,0.913
	c-0.063,0.036-0.085,0.116-0.05,0.179l0.416,0.702c0.037,0.062,0.121,0.083,0.184,0.047l1.622-0.911l-0.358,1.299
	c-0.019,0.068,0.023,0.143,0.096,0.16l0.801,0.211c0.074,0.018,0.147-0.023,0.166-0.094l0.643-2.335l1.864-1.049v2.199l-1.753,1.71
	c-0.052,0.051-0.052,0.133,0,0.186l0.589,0.571c0.052,0.053,0.138,0.053,0.189,0l0.976-0.95v1.724c0,0.072,0.062,0.131,0.136,0.131
	h0.83c0.075,0,0.136-0.059,0.136-0.131v-1.724l0.975,0.95c0.052,0.053,0.139,0.053,0.191,0l0.587-0.571
	c0.052-0.053,0.052-0.135,0-0.186l-1.753-1.71V77.43l1.954,1.1l0.643,2.333c0.019,0.07,0.094,0.113,0.165,0.096l0.803-0.21
	c0.072-0.02,0.113-0.093,0.095-0.161l-0.358-1.299l1.533,0.86c0.064,0.036,0.146,0.015,0.182-0.047l0.417-0.702
	C51.019,79.337,50.997,79.257,50.932,79.221z"/>
<path style="fill:#00E1FF;" d="M75.773,66.149l-3.034-1.79l2.641-0.723c0.142-0.038,0.227-0.188,0.189-0.335l-0.428-1.623
	c-0.037-0.145-0.184-0.233-0.326-0.193l-4.747,1.3l-3.874-2.283l3.874-2.288l4.747,1.301c0.142,0.04,0.289-0.049,0.326-0.192
	l0.428-1.626c0.037-0.144-0.048-0.293-0.189-0.333l-2.641-0.722l3.034-1.79c0.128-0.075,0.171-0.242,0.098-0.372l-0.824-1.457
	c-0.073-0.131-0.237-0.175-0.364-0.1l-3.036,1.788l0.709-2.696c0.037-0.146-0.048-0.296-0.189-0.335l-1.59-0.434
	c-0.142-0.041-0.289,0.046-0.328,0.19l-1.272,4.852l-3.873,2.283v-4.36l3.475-3.551c0.104-0.104,0.104-0.279,0-0.384l-1.164-1.188
	c-0.104-0.106-0.275-0.106-0.378,0l-1.934,1.974v-3.789c0-0.149-0.12-0.272-0.267-0.272h-1.646c-0.147,0-0.267,0.123-0.267,0.272
	v3.789l-1.934-1.974c-0.104-0.106-0.273-0.106-0.376,0l-1.166,1.188c-0.103,0.104-0.103,0.279,0,0.384l3.476,3.551v4.36
	l-3.697-2.181l-1.271-4.848c-0.037-0.146-0.184-0.233-0.328-0.192l-1.589,0.436c-0.142,0.037-0.228,0.188-0.189,0.333l0.708,2.696
	l-3.211-1.893c-0.127-0.075-0.292-0.031-0.365,0.1l-0.824,1.457c-0.072,0.13-0.029,0.297,0.098,0.372l3.212,1.894l-2.641,0.722
	c-0.142,0.041-0.227,0.19-0.188,0.336l0.426,1.623c0.039,0.145,0.186,0.233,0.326,0.192l4.749-1.298l3.694,2.182l-3.694,2.179
	l-4.749-1.302c-0.14-0.038-0.287,0.05-0.326,0.193l-0.426,1.626c-0.039,0.146,0.046,0.294,0.188,0.333l2.642,0.724l-3.213,1.895
	c-0.126,0.075-0.17,0.241-0.098,0.371l0.824,1.458c0.073,0.13,0.238,0.175,0.365,0.099l3.211-1.893l-0.708,2.696
	c-0.039,0.146,0.047,0.296,0.189,0.334l1.589,0.436c0.144,0.038,0.291-0.047,0.328-0.192l1.271-4.849l3.697-2.181v4.57l-3.476,3.55
	c-0.103,0.104-0.103,0.277,0,0.385l1.166,1.188c0.103,0.108,0.273,0.108,0.376,0l1.934-1.975v3.581c0,0.149,0.12,0.272,0.267,0.272
	h1.646c0.146,0,0.267-0.123,0.267-0.272v-3.581l1.934,1.975c0.103,0.108,0.273,0.108,0.378,0l1.164-1.188
	c0.104-0.107,0.104-0.28,0-0.385l-3.475-3.55v-4.57l3.873,2.285l1.272,4.849c0.039,0.146,0.186,0.232,0.328,0.193l1.59-0.436
	c0.142-0.038,0.226-0.189,0.189-0.333l-0.709-2.698l3.036,1.788c0.127,0.076,0.291,0.031,0.364-0.099l0.824-1.458
	C75.944,66.391,75.901,66.225,75.773,66.149z"/>
<path style="fill:#FFFFFF;" d="M70.12,27.18C68.854,17.018,60.136,9.133,49.511,9.012C49.428,9.009,49.348,9,49.264,9
	c-9.338,0-17.242,6.005-19.986,14.303c-5.251,1.15-9.532,4.803-11.495,9.633C10.684,33.173,5,38.903,5,45.954
	c0,6.358,4.619,11.621,10.724,12.78l-0.133-0.499c-0.173-0.662-0.036-1.334,0.32-1.861c-0.902-0.673-1.184-1.938-0.613-2.942
	l0.844-1.458c0.39-0.691,1.147-1.134,1.965-1.134c0.308,0,0.612,0.062,0.894,0.184c0.278-0.578,0.795-1.033,1.457-1.209l1.861-0.498
	l0.334-0.01c0.103-0.178,0.229-0.342,0.377-0.486l1.165-1.164c0.399-0.413,0.993-0.664,1.604-0.664c0.056,0,0.112,0.002,0.167,0.006
	C26.1,45.874,27.06,45,28.22,45h1.667c1.161,0,2.121,0.874,2.256,1.998c0.055-0.004,0.111-0.006,0.167-0.006
	c0.605,0,1.175,0.235,1.604,0.661l1.182,1.185c0.115,0.113,0.218,0.239,0.306,0.377c0.077-0.008,0.155-0.012,0.233-0.012h0.272
	l0.335,0.083l1.593,0.425c0.673,0.179,1.197,0.647,1.472,1.238c0.222-0.071,0.458-0.109,0.696-0.109
	c0.818,0,1.575,0.442,1.977,1.153l0.824,1.427c0.303,0.522,0.384,1.134,0.228,1.721c-0.115,0.432-0.349,0.811-0.673,1.103
	c0.375,0.532,0.52,1.217,0.34,1.887L42.464,59h7.046h1.375l-0.181-0.689c-0.175-0.661-0.033-1.341,0.333-1.871
	c-0.912-0.679-1.19-1.919-0.626-2.933l0.831-1.469c0.392-0.706,1.15-1.152,1.972-1.152c0.295,0,0.586,0.059,0.857,0.169
	c0.025-0.052,0.052-0.103,0.081-0.152c0.306-0.524,0.796-0.897,1.382-1.051l1.827-0.501l0.311-0.009
	c0.095-0.167,0.211-0.324,0.352-0.466l1.165-1.188c0.415-0.429,1.007-0.68,1.616-0.68c0.046,0,0.091,0.002,0.137,0.005
	C61.069,45.881,62.03,45,63.192,45h1.646c1.162,0,2.123,0.881,2.252,2.013c0.045-0.003,0.091-0.005,0.137-0.005
	c0.604,0,1.193,0.248,1.617,0.679l1.166,1.19c0.114,0.114,0.212,0.237,0.296,0.368c0.066-0.006,0.133-0.009,0.201-0.009h0.284
	l0.344,0.089l1.56,0.425c0.665,0.184,1.182,0.651,1.456,1.237c0.215-0.066,0.44-0.102,0.667-0.102c0.821,0,1.579,0.446,1.979,1.165
	l0.817,1.444c0.53,0.946,0.311,2.12-0.462,2.814c0.064,0.09,0.111,0.189,0.162,0.287C81.92,53.793,85,48.789,85,43.058
	C85,34.684,78.445,27.832,70.12,27.18z"/>
<path style="fill:#00E1FF;" d="M40.972,66.001l-3.075-1.776l2.677-0.718c0.144-0.037,0.23-0.187,0.192-0.331l-0.433-1.611
	c-0.037-0.144-0.187-0.23-0.33-0.191l-4.813,1.289l-3.926-2.267l3.926-2.269l4.813,1.291c0.144,0.039,0.293-0.048,0.33-0.191
	l0.433-1.613c0.038-0.143-0.048-0.291-0.192-0.331l-2.677-0.716l3.075-1.776c0.128-0.074,0.173-0.241,0.099-0.37l-0.834-1.444
	c-0.073-0.13-0.241-0.174-0.368-0.1l-3.077,1.775l0.719-2.677c0.038-0.145-0.047-0.293-0.191-0.331l-1.613-0.431
	c-0.144-0.04-0.294,0.046-0.332,0.189l-1.291,4.813l-3.925,2.267v-4.328l3.521-3.522c0.106-0.104,0.106-0.277,0-0.381l-1.177-1.18
	c-0.106-0.105-0.279-0.105-0.384,0l-1.959,1.959v-3.76c0-0.148-0.122-0.271-0.272-0.271H28.22c-0.149,0-0.271,0.122-0.271,0.271
	v3.76l-1.961-1.959c-0.103-0.105-0.278-0.105-0.38,0l-1.181,1.18c-0.106,0.104-0.106,0.276,0,0.381l3.522,3.522v4.328l-3.747-2.165
	l-1.289-4.811c-0.038-0.144-0.188-0.23-0.333-0.19l-1.612,0.432c-0.144,0.038-0.229,0.187-0.192,0.331l0.719,2.676l-3.255-1.879
	c-0.13-0.074-0.296-0.03-0.37,0.1l-0.836,1.444c-0.073,0.129-0.03,0.296,0.099,0.37l3.256,1.879l-2.677,0.717
	c-0.144,0.04-0.229,0.189-0.191,0.333l0.431,1.611c0.042,0.143,0.189,0.23,0.333,0.191l4.812-1.289l3.746,2.163l-3.746,2.163
	l-4.812-1.291c-0.144-0.037-0.291,0.049-0.331,0.192l-0.433,1.612c-0.038,0.144,0.047,0.293,0.191,0.33l2.677,0.718l-3.256,1.881
	c-0.129,0.073-0.172,0.239-0.099,0.369l0.836,1.445c0.073,0.129,0.239,0.174,0.37,0.099l3.255-1.879l-0.719,2.676
	c-0.037,0.146,0.048,0.293,0.192,0.331l1.612,0.434c0.144,0.037,0.295-0.049,0.333-0.192l1.289-4.811l3.747-2.164v4.534
	l-3.522,3.522c-0.106,0.104-0.106,0.276,0,0.382l1.181,1.181c0.102,0.105,0.277,0.105,0.38,0l1.961-1.96v3.553
	c0,0.147,0.122,0.271,0.271,0.271h1.667c0.151,0,0.272-0.123,0.272-0.271v-3.553l1.959,1.96c0.104,0.105,0.278,0.105,0.384,0
	l1.177-1.181c0.106-0.105,0.106-0.277,0-0.382l-3.521-3.522v-4.534l3.925,2.269l1.291,4.81c0.037,0.145,0.188,0.23,0.332,0.192
	l1.613-0.432c0.144-0.038,0.229-0.188,0.191-0.332l-0.719-2.677l3.077,1.775c0.127,0.075,0.295,0.03,0.368-0.099l0.834-1.445
	C41.146,66.24,41.101,66.074,40.972,66.001z"/>
</svg>
