<svg enable-background="new 0 0 32 32" height="32" viewBox="0 0 32 32" width="32" xmlns="http://www.w3.org/2000/svg"><g fill="#fff"><path d="m16.167 23.833c4.411 0 8-3.589 8-8s-3.589-8-8-8-8 3.589-8 8 3.588 8 8 8zm0-15c3.86 0 7 3.14 7 7s-3.14 7-7 7-7-3.14-7-7 3.14-7 7-7z"/><path d="m15.5 5.5c.276 0 .5-.224.5-.5v-4c0-.276-.224-.5-.5-.5s-.5.224-.5.5v4c0 .276.224.5.5.5z"/><path d="m16 31v-4c0-.275-.224-.5-.5-.5s-.5.225-.5.5v4c0 .275.224.5.5.5s.5-.225.5-.5z"/><path d="m5.5 16.5c0-.276-.224-.5-.5-.5h-4c-.276 0-.5.224-.5.5 0 .275.224.5.5.5h4c.276 0 .5-.225.5-.5z"/><path d="m31 16h-4c-.275 0-.5.224-.5.5 0 .275.225.5.5.5h4c.275 0 .5-.225.5-.5 0-.276-.225-.5-.5-.5z"/><path d="m6.08 26.793 2.829-2.829c.195-.194.195-.512 0-.707-.195-.194-.512-.194-.707 0l-2.829 2.829c-.195.195-.195.512 0 .707.098.098.226.146.354.146s.255-.048.353-.146z"/><path d="m24.111 8.555c.128 0 .256-.049.354-.146l2.829-2.829c.195-.195.195-.512 0-.707-.194-.195-.512-.195-.707 0l-2.829 2.829c-.195.195-.195.512 0 .707.097.097.224.146.353.146z"/><path d="m24.465 23.258c-.195-.195-.512-.195-.707 0s-.195.512 0 .707l2.829 2.829c.099.099.226.146.354.146.127 0 .256-.049.354-.146.195-.194.195-.512 0-.707z"/><path d="m8.202 8.409c.098.098.226.146.354.146s.256-.049.354-.146c.195-.195.195-.512 0-.707l-2.83-2.829c-.195-.195-.512-.195-.707 0s-.195.512 0 .707z"/></g></svg>