<svg enable-background="new 0 0 32 32" height="32" viewBox="0 0 32 32" width="32" xmlns="http://www.w3.org/2000/svg"><path d="m17.75 24c1.509 0 2.984-.43 4.268-1.241.146-.091.232-.251.232-.422s-.088-.331-.232-.422c-2.045-1.295-3.268-3.506-3.268-5.915s1.223-4.62 3.268-5.914c.146-.091.232-.251.232-.422s-.088-.331-.232-.422c-1.284-.813-2.759-1.242-4.268-1.242-4.411 0-8 3.589-8 8s3.589 8 8 8zm0-15c1.064 0 2.109.245 3.064.712-1.932 1.512-3.064 3.808-3.064 6.288s1.132 4.775 3.064 6.288c-.955.467-2 .712-3.064.712-3.859 0-7-3.141-7-7 0-3.86 3.141-7 7-7z" fill="#fff"/></svg>