<svg enable-background="new 0 0 32 32" height="32" viewBox="0 0 32 32" width="32" xmlns="http://www.w3.org/2000/svg"><g fill="#fff"><path d="m5 17.75c.276 0 .5-.225.5-.5 0-2.575 2.061-4.75 4.5-4.75.63 0 1.252.137 1.85.408.146.066.313.059.454-.021.139-.08.231-.221.249-.38.252-2.284 2.163-4.007 4.447-4.007 2.135 0 3.989 1.518 4.41 3.609.048.239.252.388.505.401.036-.001.071-.005.085-.01 2.439 0 4.5 2.175 4.5 4.75 0 .275.225.5.5.5s.5-.225.5-.5c0-3.014-2.355-5.576-5.206-5.742-.66-2.345-2.823-4.008-5.294-4.008-2.579 0-4.771 1.794-5.335 4.265-.543-.176-1.101-.265-1.665-.265-2.981 0-5.5 2.633-5.5 5.75 0 .275.224.5.5.5z"/><path d="m5 20h22c.275 0 .5-.225.5-.5s-.225-.5-.5-.5h-22c-.276 0-.5.225-.5.5s.224.5.5.5z"/><path d="m5 22h22c.275 0 .5-.225.5-.5s-.225-.5-.5-.5h-22c-.276 0-.5.225-.5.5s.224.5.5.5z"/><path d="m5 24h22c.275 0 .5-.225.5-.5s-.225-.5-.5-.5h-22c-.276 0-.5.225-.5.5s.224.5.5.5z"/></g></svg>