<svg enable-background="new 0 0 24 24" height="24" viewBox="0 0 24 24" width="24" xmlns="http://www.w3.org/2000/svg"><g fill="#fff"><path d="m11.5 5c-4.204 0-7.625 2.972-7.625 6.625 0 .345.28.625.625.625s.625-.28.625-.625c0-2.964 2.859-5.375 6.375-5.375s6.375 2.411 6.375 5.375c0 .345.28.625.625.625s.625-.28.625-.625c0-3.653-3.421-6.625-7.625-6.625z"/><path d="m16.5 16.5c-.345 0-.625.28-.625.625 0 1.034-.841 1.875-1.875 1.875s-1.875-.841-1.875-1.875v-5c0-.345-.28-.625-.625-.625s-.625.28-.625.625v5c0 1.723 1.402 3.125 3.125 3.125s3.125-1.402 3.125-3.125c0-.345-.28-.625-.625-.625z"/><path d="m6 3.75c.167 0 .324-.065.442-.183l2.5-2.5c.118-.118.183-.275.183-.442s-.065-.324-.183-.442-.275-.183-.442-.183-.324.065-.442.183l-2.5 2.5c-.118.118-.183.275-.183.442s.065.324.183.442.275.183.442.183z"/><path d="m19.442.183c-.118-.118-.275-.183-.442-.183s-.324.065-.442.183l-2.5 2.5c-.117.118-.183.275-.183.442s.065.324.183.442.275.183.442.183.324-.065.442-.183l2.5-2.5c.117-.118.183-.275.183-.442s-.065-.324-.183-.442z"/><path d="m12.375 3.125c0 .167.065.324.183.442s.275.183.442.183.324-.065.442-.183l2.5-2.5c.117-.118.183-.275.183-.442s-.065-.324-.183-.442c-.118-.118-.275-.183-.442-.183s-.324.065-.442.183l-2.5 2.5c-.118.118-.183.275-.183.442z"/><path d="m8.875 3.125c0 .167.065.324.183.442s.275.183.442.183.324-.065.442-.183l2.5-2.5c.118-.118.183-.275.183-.442s-.065-.324-.183-.442-.275-.183-.442-.183-.324.065-.442.183l-2.5 2.5c-.118.118-.183.275-.183.442z"/></g></svg>