<svg enable-background="new 0 0 24 24" height="24" viewBox="0 0 24 24" width="24" xmlns="http://www.w3.org/2000/svg"><g fill="#fff"><path d="m4.5 14.125c-.345 0-.625-.28-.625-.625s.28-.625.625-.625h11c.758 0 1.375-.617 1.375-1.375s-.617-1.375-1.375-1.375c-.345 0-.625-.28-.625-.625s.28-.625.625-.625c1.447 0 2.625 1.177 2.625 2.625s-1.178 2.625-2.625 2.625z"/><path d="m7.5 16.125c-.345 0-.625-.28-.625-.625s.28-.625.625-.625h11c1.861 0 3.375-1.515 3.375-3.375s-1.514-3.375-3.375-3.375c-.345 0-.625-.28-.625-.625s.28-.625.625-.625c2.55 0 4.625 2.075 4.625 4.625s-2.075 4.625-4.625 4.625z"/><path d="m1.5 12.125c-.345 0-.625-.28-.625-.625s.28-.625.625-.625h11c.345 0 .625.28.625.625s-.28.625-.625.625z"/></g></svg>