<svg enable-background="new 0 0 32 32" height="32" viewBox="0 0 32 32" width="32" xmlns="http://www.w3.org/2000/svg"><path d="m23.619 14.736c-.66-2.346-2.823-4.008-5.293-4.008-.833 0-1.617.204-2.327.541-.231-1.32-.838-2.547-1.796-3.505-.873-.874-1.976-1.479-3.189-1.752-.169-.04-.343.013-.463.134-.121.121-.172.296-.134.463.422 1.873-.133 3.797-1.483 5.147-1.35 1.351-3.276 1.904-5.147 1.483-.168-.039-.343.013-.463.134-.121.121-.172.296-.134.463.273 1.213.878 2.315 1.752 3.189.414.414.888.748 1.39 1.035-.319.709-.503 1.487-.503 2.303 0 3.055 2.519 5.636 5.5 5.636h12c2.981 0 5.5-2.581 5.5-5.636-.004-2.953-2.358-5.465-5.21-5.627zm-17.973 1.583c-.56-.56-.99-1.232-1.267-1.973 1.943.195 3.861-.484 5.26-1.883s2.075-3.318 1.883-5.26c.74.276 1.413.707 1.973 1.267.902.902 1.446 2.085 1.579 3.348-1.024.763-1.785 1.869-2.083 3.175-.543-.176-1.101-.265-1.665-.265-1.843 0-3.508.988-4.511 2.463-.422-.243-.82-.524-1.169-.872zm17.679 8.681h-12c-2.439 0-4.5-2.123-4.5-4.636s2.061-4.636 4.5-4.636c.63 0 1.252.137 1.849.408.146.066.314.058.454-.021.139-.079.232-.22.25-.379.252-2.285 2.165-4.007 4.448-4.007 2.135 0 3.99 1.518 4.41 3.609.047.233.252.401.49.401.051.001.084-.004.1-.01 2.439 0 4.5 2.123 4.5 4.636s-2.06 4.635-4.501 4.635z" fill="#fff"/></svg>