<svg enable-background="new 0 0 32 32" height="32" viewBox="0 0 32 32" width="32" xmlns="http://www.w3.org/2000/svg"><g fill="#fff"><path d="m19.5 7.5c.275 0 .5-.224.5-.5v-2c0-.276-.225-.5-.5-.5s-.5.224-.5.5v2c0 .276.225.5.5.5z"/><path d="m30 15h-2c-.275 0-.5.224-.5.5s.225.5.5.5h2c.275 0 .5-.224.5-.5s-.225-.5-.5-.5z"/><path d="m19.25 28c2.98 0 5.5-2.585 5.5-5.646 0-1.289-.466-2.48-1.208-3.443 1.248-1.105 1.966-2.672 1.966-4.347 0-3.206-2.607-5.814-5.814-5.814-2.483 0-4.71 1.624-5.5 3.965-2.554.026-4.719 1.807-5.279 4.261-.543-.177-1.101-.266-1.665-.266-2.981 0-5.5 2.585-5.5 5.646 0 3.06 2.519 5.645 5.5 5.645h12zm.443-18.251c2.654 0 4.814 2.16 4.814 4.814 0 1.393-.599 2.696-1.641 3.611-.907-.832-2.061-1.385-3.324-1.457-.57-2.029-2.268-3.542-4.314-3.915.72-1.812 2.493-3.053 4.465-3.053zm-16.943 12.605c0-2.518 2.061-4.646 4.5-4.646.63 0 1.252.138 1.849.408.146.065.314.058.454-.021.139-.08.232-.222.25-.381.252-2.284 2.165-4.007 4.448-4.007 2.135 0 3.99 1.518 4.41 3.608.047.233.252.4.489.4.037 0 .082-.005.101-.01 2.438 0 4.5 2.127 4.5 4.646s-2.062 4.646-4.5 4.646h-12c-2.44.003-4.501-2.124-4.501-4.643z"/><path d="m13.386 9.768c.098.098.226.146.354.146s.256-.049.354-.146c.195-.195.195-.512 0-.707l-1.415-1.414c-.195-.195-.512-.195-.707 0s-.195.512 0 .707z"/><path d="m25.76 9.914c.129 0 .256-.049.354-.146l1.415-1.414c.195-.195.195-.512 0-.707s-.512-.195-.707 0l-1.415 1.414c-.195.195-.195.512 0 .707.097.097.225.146.353.146z"/><path d="m25.982 20.364 1.414 1.415c.098.098.226.146.354.146s.256-.049.354-.146c.195-.195.195-.512 0-.707l-1.414-1.415c-.194-.195-.512-.195-.707 0s-.196.511-.001.707z"/></g></svg>