<svg enable-background="new 0 0 32 32" height="32" viewBox="0 0 32 32" width="32" xmlns="http://www.w3.org/2000/svg"><g fill="#fff"><path d="m10 21h12c3.146 0 5.5-3.234 5.5-6.125 0-2.801-2.207-5.922-5.206-6.116-.66-2.346-2.823-4.009-5.294-4.009-2.579 0-4.771 1.794-5.335 4.265-.543-.176-1.101-.265-1.665-.265-3.147 0-5.5 3.234-5.5 6.125s2.353 6.125 5.5 6.125zm0-11.25c.63 0 1.252.137 1.85.408.146.067.313.058.454-.021.139-.08.231-.221.249-.38.252-2.284 2.163-4.007 4.447-4.007 2.135 0 3.989 1.518 4.41 3.609.048.238.271.399.505.401.036-.001.071-.005.085-.01 2.534 0 4.5 2.755 4.5 5.125s-1.966 5.125-4.5 5.125h-12c-2.534 0-4.5-2.755-4.5-5.125s1.966-5.125 4.5-5.125z"/><path d="m11 23v4c0 .275.224.5.5.5s.5-.225.5-.5v-4c0-.275-.224-.5-.5-.5s-.5.225-.5.5z"/><path d="m17 23v4c0 .275.225.5.5.5s.5-.225.5-.5v-4c0-.275-.225-.5-.5-.5s-.5.225-.5.5z"/><path d="m14 23v2c0 .275.224.5.5.5s.5-.225.5-.5v-2c0-.275-.224-.5-.5-.5s-.5.225-.5.5z"/><path d="m20 23v2c0 .275.225.5.5.5s.5-.225.5-.5v-2c0-.275-.225-.5-.5-.5s-.5.225-.5.5z"/></g></svg>