<svg enable-background="new 0 0 32 32" height="32" viewBox="0 0 32 32" width="32" xmlns="http://www.w3.org/2000/svg"><g fill="#fff"><path d="m28.125 14.25c0-3.014-2.355-5.576-5.207-5.742-.66-2.345-2.822-4.008-5.293-4.008-2.579 0-4.771 1.793-5.335 4.265-.543-.176-1.101-.265-1.665-.265-2.981 0-5.5 2.633-5.5 5.75s2.519 5.75 5.5 5.75h12c2.98 0 5.5-2.633 5.5-5.75zm-22 0c0-2.575 2.061-4.75 4.5-4.75.63 0 1.252.137 1.849.408.146.065.315.058.454-.021s.232-.22.25-.379c.252-2.285 2.164-4.008 4.447-4.008 2.135 0 3.99 1.518 4.41 3.609.047.238.22.396.504.401.037-.001.072-.005.086-.01 2.439 0 4.5 2.175 4.5 4.75s-2.061 4.75-4.5 4.75h-12c-2.439 0-4.5-2.175-4.5-4.75z"/><path d="m9.729 21.646c-.195-.195-.512-.195-.707 0l-2.497 2.496c-.195.195-.195.512 0 .707.098.099.226.146.354.146s.256-.049.354-.146l2.497-2.496c.194-.195.194-.511-.001-.707z"/><path d="m13.729 21.646c-.195-.195-.512-.195-.707 0l-2.497 2.496c-.195.195-.195.512 0 .707.098.099.226.146.354.146s.256-.049.354-.146l2.497-2.496c.194-.195.194-.511-.001-.707z"/><path d="m17.729 21.646c-.194-.195-.512-.195-.707 0l-2.497 2.496c-.195.195-.195.512 0 .707.098.099.226.146.354.146s.256-.049.354-.146l2.498-2.496c.193-.195.193-.511-.002-.707z"/><path d="m21.021 21.646-2.498 2.496c-.194.195-.194.512 0 .707.099.099.227.146.354.146s.256-.049.354-.146l2.496-2.496c.195-.195.195-.513 0-.707-.193-.195-.51-.195-.706 0z"/><path d="m17.021 25.646-1 1c-.195.194-.195.512 0 .707.098.098.226.146.354.146s.256-.049.354-.146l1-1c.195-.195.195-.513 0-.707-.195-.195-.512-.195-.708 0z"/><path d="m13.021 25.646-1 1c-.195.194-.195.512 0 .707.098.098.226.146.354.146s.256-.049.354-.146l1-1c.195-.195.195-.513 0-.707-.195-.195-.512-.195-.708 0z"/><path d="m9.021 25.646-1 1c-.195.194-.195.512 0 .707.098.098.226.147.354.147s.256-.049.354-.146l1-1c.195-.194.195-.512 0-.707s-.512-.196-.708-.001z"/><path d="m5.021 25.646-1 1c-.195.194-.195.512 0 .707.098.098.226.147.354.147s.256-.049.354-.146l1-1c.195-.194.195-.512 0-.707s-.512-.196-.708-.001z"/></g></svg>