<svg enable-background="new 0 0 32 32" height="32" viewBox="0 0 32 32" width="32" xmlns="http://www.w3.org/2000/svg"><g fill="#fff"><path d="m9.833 21h12c2.931 0 5.5-2.805 5.5-6 0-3.089-2.399-5.812-5.206-5.991-.659-2.346-2.822-4.009-5.294-4.009-2.579 0-4.771 1.793-5.335 4.265-.542-.176-1.101-.265-1.665-.265-2.93 0-5.5 2.804-5.5 6 0 3.195 2.571 6 5.5 6zm0-11c.63 0 1.252.137 1.849.408.146.066.314.059.454-.021.139-.079.232-.22.25-.379.252-2.285 2.164-4.008 4.447-4.008 2.135 0 3.99 1.518 4.41 3.608.048.239.254.39.505.402.036-.001.07-.005.085-.01 2.575 0 4.5 2.64 4.5 5 0 2.359-1.925 5-4.5 5h-12c-2.576 0-4.5-2.641-4.5-5 0-2.36 1.925-5 4.5-5z"/><circle cx="12.833" cy="25" r=".5"/><circle cx="17.833" cy="25" r=".5"/><circle cx="15.833" cy="23" r=".5"/><circle cx="20.833" cy="23" r=".5"/><circle cx="14.833" cy="27" r=".5"/><circle cx="10.833" cy="23" r=".5"/></g></svg>