<?xml version="1.0" encoding="utf-8"?>
<!-- Generator: Adobe Illustrator 16.0.4, SVG Export Plug-In . SVG Version: 6.00 Build 0)  -->
<!DOCTYPE svg PUBLIC "-//W3C//DTD SVG 1.0//EN" "http://www.w3.org/TR/2001/REC-SVG-20010904/DTD/svg10.dtd">
<svg version="1.0" id="Layer_1" xmlns="http://www.w3.org/2000/svg" xmlns:xlink="http://www.w3.org/1999/xlink" x="0px" y="0px"
	 width="32px" height="32px" viewBox="0 0 32 32" style="enable-background:new 0 0 32 32;" xml:space="preserve">
<path style="fill:#FFFFFF;" d="M22.293,7.425C21.634,5.079,19.471,3.417,17,3.417c-2.579,0-4.771,1.793-5.335,4.265
	C11.122,7.505,10.564,7.417,10,7.417c-2.981,0-5.5,2.652-5.5,5.792C4.5,16.348,7.019,19,10,19h12c2.98,0,5.5-2.652,5.5-5.792
	C27.5,10.172,25.145,7.592,22.293,7.425z M22,18H10c-2.397,0-4.5-2.239-4.5-4.792c0-2.553,2.103-4.792,4.5-4.792
	c0.63,0,1.252,0.137,1.849,0.408c0.146,0.066,0.314,0.058,0.454-0.021c0.139-0.079,0.232-0.221,0.25-0.379
	C12.805,6.139,14.717,4.417,17,4.417c2.135,0,3.99,1.518,4.41,3.609c0.047,0.234,0.252,0.401,0.49,0.401
	c0.045,0.005,0.084-0.004,0.1-0.01c2.396,0,4.5,2.239,4.5,4.792C26.5,15.761,24.396,18,22,18z"/>
<g>
	<path style="fill:#FFFFFF;" d="M11.486,28.13c0.097,0.095,0.222,0.142,0.348,0.142c0.131,0,0.261-0.051,0.359-0.151l3.167-3.271
		c0.14-0.145,0.179-0.357,0.101-0.543C15.382,24.12,15.201,24,15,24h-1.204l2.004-1.861c0.202-0.188,0.214-0.505,0.026-0.707
		c-0.189-0.203-0.505-0.215-0.707-0.027l-2.937,2.729c-0.15,0.142-0.2,0.358-0.125,0.55c0.076,0.19,0.26,0.316,0.466,0.316h1.297
		l-2.346,2.423C11.282,27.622,11.287,27.938,11.486,28.13z"/>
	<path style="fill:#FFFFFF;" d="M18.605,24.268l2.498-2.498c0.193-0.193,0.193-0.512,0-0.707c-0.195-0.193-0.514-0.193-0.707,0
		l-2.498,2.498c-0.194,0.194-0.194,0.513,0,0.707c0.099,0.099,0.227,0.146,0.354,0.146S18.509,24.365,18.605,24.268z"/>
	<path style="fill:#FFFFFF;" d="M8.606,24.268l2.497-2.498c0.195-0.193,0.195-0.512,0-0.707c-0.195-0.193-0.512-0.193-0.707,0
		l-2.497,2.498c-0.195,0.194-0.195,0.513,0,0.707c0.098,0.099,0.226,0.146,0.354,0.146S8.509,24.365,8.606,24.268z"/>
</g>
</svg>
