<svg enable-background="new 0 0 32 32" height="32" viewBox="0 0 32 32" width="32" xmlns="http://www.w3.org/2000/svg"><g fill="#fff"><path d="m15.5 17.5c0-.275-.224-.5-.5-.5h-12c-.276 0-.5.225-.5.5s.224.5.5.5h12c.276 0 .5-.225.5-.5z"/><path d="m23.896 10c-.276 0-.5.224-.5.5s.224.5.5.5c2.388 0 4.562 2.383 4.562 5 0 2.359-1.925 5-4.5 5h-11.958c-.276 0-.5.225-.5.5s.224.5.5.5h11.958c2.931 0 5.5-2.805 5.5-6 0-3.14-2.651-6-5.562-6z"/><path d="m19.404 20c1.818 0 3.229-2.016 3.229-3.75 0-1.83-1.467-3.375-3.203-3.375-.275 0-.5.224-.5.5s.225.5.5.5c1.194 0 2.203 1.087 2.203 2.375 0 1.238-1.027 2.75-2.229 2.75h-12.404c-.276 0-.5.225-.5.5s.224.5.5.5z"/></g></svg>