<?xml version="1.0" encoding="utf-8"?>
<!-- Generator: Adobe Illustrator 16.0.4, SVG Export Plug-In . SVG Version: 6.00 Build 0)  -->
<!DOCTYPE svg PUBLIC "-//W3C//DTD SVG 1.0//EN" "http://www.w3.org/TR/2001/REC-SVG-20010904/DTD/svg10.dtd">
<svg version="1.0" id="Layer_1" xmlns="http://www.w3.org/2000/svg" xmlns:xlink="http://www.w3.org/1999/xlink" x="0px" y="0px"
	 width="90px" height="90px" viewBox="0 0 90 90" style="enable-background:new 0 0 90 90;" xml:space="preserve">
<g>
	<g>
		<path style="fill-rule:evenodd;clip-rule:evenodd;fill:#FFD550;" d="M45,21.003c-13.253,0-23.997,10.744-23.997,23.997
			S31.747,68.997,45,68.997S68.996,58.253,68.996,45S58.253,21.003,45,21.003z M45,62.999c-9.94,0-17.999-8.059-17.999-17.999
			S35.06,27.001,45,27.001S62.998,35.06,62.998,45S54.94,62.999,45,62.999z"/>
	</g>
</g>
<path style="fill-rule:evenodd;clip-rule:evenodd;fill:#FFD550;" d="M16.009,17.423l1.414-1.414c0.781-0.781,2.047-0.781,2.829,0
	l4.243,4.242c0.781,0.781,0.781,2.048,0,2.829l-1.415,1.414c-0.781,0.781-2.047,0.781-2.828,0l-4.243-4.243
	C15.228,19.47,15.228,18.204,16.009,17.423z"/>
<path style="fill-rule:evenodd;clip-rule:evenodd;fill:#FFD550;" d="M46,15h-2c-1.104,0-2-0.896-2-2V7c0-1.104,0.896-2,2-2h2
	c1.104,0,2,0.896,2,2v6C48,14.104,47.104,15,46,15z"/>
<path style="fill-rule:evenodd;clip-rule:evenodd;fill:#FFD550;" d="M66.92,24.494l-1.414-1.414c-0.781-0.781-0.781-2.048,0-2.829
	l4.242-4.242c0.781-0.781,2.048-0.781,2.829,0l1.414,1.414c0.781,0.781,0.781,2.047,0,2.828l-4.243,4.243
	C68.968,25.275,67.701,25.275,66.92,24.494z"/>
<path style="fill-rule:evenodd;clip-rule:evenodd;fill:#FFD550;" d="M75,46v-2c0-1.104,0.896-2,2-2h6c1.104,0,2,0.896,2,2v2
	c0,1.104-0.896,2-2,2h-6C75.896,48,75,47.104,75,46z"/>
<path style="fill-rule:evenodd;clip-rule:evenodd;fill:#FFD550;" d="M65.506,66.92l1.414-1.414c0.781-0.781,2.048-0.781,2.829,0
	l4.242,4.243c0.781,0.78,0.781,2.047,0,2.828l-1.414,1.414c-0.781,0.781-2.048,0.781-2.828,0l-4.243-4.242
	C64.725,68.968,64.725,67.701,65.506,66.92z"/>
<path style="fill-rule:evenodd;clip-rule:evenodd;fill:#FFD550;" d="M46,85h-2c-1.104,0-2-0.896-2-2v-6c0-1.104,0.896-2,2-2h2
	c1.104,0,2,0.896,2,2v6C48,84.104,47.104,85,46,85z"/>
<path style="fill-rule:evenodd;clip-rule:evenodd;fill:#FFD550;" d="M17.423,73.991l-1.414-1.414c-0.781-0.781-0.781-2.047,0-2.828
	l4.242-4.243c0.781-0.781,2.048-0.781,2.829,0l1.415,1.414c0.781,0.781,0.781,2.048,0,2.829l-4.243,4.242
	C19.47,74.772,18.204,74.772,17.423,73.991z"/>
<path style="fill-rule:evenodd;clip-rule:evenodd;fill:#FFD550;" d="M5,46v-2c0-1.104,0.896-2,2-2h6c1.104,0,2,0.896,2,2v2
	c0,1.104-0.896,2-2,2H7C5.896,48,5,47.104,5,46z"/>
</svg>
