<?xml version="1.0" encoding="utf-8"?>
<!-- Generator: Adobe Illustrator 16.0.4, SVG Export Plug-In . SVG Version: 6.00 Build 0)  -->
<!DOCTYPE svg PUBLIC "-//W3C//DTD SVG 1.0//EN" "http://www.w3.org/TR/2001/REC-SVG-20010904/DTD/svg10.dtd">
<svg version="1.0" id="Layer_1" xmlns="http://www.w3.org/2000/svg" xmlns:xlink="http://www.w3.org/1999/xlink" x="0px" y="0px"
	 width="90px" height="90px" viewBox="0 0 90 90" style="enable-background:new 0 0 90 90;" xml:space="preserve">
<path style="fill-rule:evenodd;clip-rule:evenodd;fill:#BEBEBE;" d="M84.974,56.993c0,8.833-7.16,15.993-15.993,15.993H21.02
	c-8.833,0-15.993-7.16-15.993-15.993c0-6.07,3.382-11.351,8.364-14.06c-0.232-1.282-0.371-2.596-0.371-3.944
	c0-12.136,9.838-21.974,21.974-21.974c6.304,0,11.972,2.669,15.979,6.922c1.899-0.599,3.92-0.925,6.018-0.925
	c11.04,0,19.99,8.95,19.99,19.991c0,0.052-0.008,0.101-0.008,0.152C81.751,45.919,84.974,51.075,84.974,56.993z M70.356,47.13
	c0.406-1.311,0.626-2.702,0.626-4.146c0-7.719-6.258-13.976-13.977-13.976c-2.932,0-5.648,0.906-7.896,2.448
	c-2.698-5.015-7.993-8.426-14.088-8.426c-8.83,0-15.988,7.159-15.988,15.989c0,2.919,0.795,5.646,2.16,8.001h-0.189
	c-5.514,0-9.983,4.47-9.983,9.982c0,5.514,4.47,9.983,9.983,9.983h47.961c5.514,0,9.983-4.47,9.983-9.983
	C78.948,51.965,75.209,47.809,70.356,47.13z"/>
</svg>
