<?xml version="1.0" encoding="utf-8"?>
<!-- Generator: Adobe Illustrator 16.0.4, SVG Export Plug-In . SVG Version: 6.00 Build 0)  -->
<!DOCTYPE svg PUBLIC "-//W3C//DTD SVG 1.0//EN" "http://www.w3.org/TR/2001/REC-SVG-20010904/DTD/svg10.dtd">
<svg version="1.0" id="Layer_1" xmlns="http://www.w3.org/2000/svg" xmlns:xlink="http://www.w3.org/1999/xlink" x="0px" y="0px"
	 width="24px" height="24px" viewBox="0 0 24 24" style="enable-background:new 0 0 24 24;" xml:space="preserve">
<g>
	<g>
		<g>
			<path style="fill-rule:evenodd;clip-rule:evenodd;fill:#7CD5FF;" d="M19,13H2.5C2.224,13,2,13.224,2,13.5V14
				c0,0.276,0.224,0.5,0.5,0.5H19c0.828,0,1.5,0.672,1.5,1.5s-0.672,1.5-1.5,1.5c-0.696,0-1.279-0.475-1.449-1.117H17.55
				c-0.052-0.22-0.249-0.384-0.485-0.384h-0.516c-0.276,0-0.5,0.224-0.5,0.5c0,0.044,0.008,0.087,0.019,0.128h-0.001
				C16.355,17.982,17.559,19,19,19c1.657,0,3-1.344,3-3S20.657,13,19,13z"/>
		</g>
	</g>
	<path style="fill-rule:evenodd;clip-rule:evenodd;fill:#7CD5FF;" d="M16,11L16,11H2.5C2.224,11,2,10.776,2,10.5V10
		c0-0.276,0.224-0.5,0.5-0.5h2h8.904H16l0,0c0.828,0,1.5-0.672,1.5-1.5S16.828,6.5,16,6.5c-0.696,0-1.279,0.475-1.449,1.117H14.55
		c-0.052,0.22-0.249,0.384-0.485,0.384h-0.516c-0.276,0-0.5-0.224-0.5-0.5c0-0.044,0.008-0.087,0.019-0.128h-0.001
		C13.355,6.018,14.559,5,16,5c1.657,0,3,1.344,3,3S17.657,11,16,11z"/>
</g>
</svg>
