<?xml version="1.0" encoding="utf-8"?>
<!-- Generator: Adobe Illustrator 16.0.4, SVG Export Plug-In . SVG Version: 6.00 Build 0)  -->
<!DOCTYPE svg PUBLIC "-//W3C//DTD SVG 1.0//EN" "http://www.w3.org/TR/2001/REC-SVG-20010904/DTD/svg10.dtd">
<svg version="1.0" id="Layer_1" xmlns="http://www.w3.org/2000/svg" xmlns:xlink="http://www.w3.org/1999/xlink" x="0px" y="0px"
	 width="90px" height="90px" viewBox="0 0 90 90" style="enable-background:new 0 0 90 90;" xml:space="preserve">
<g>
	<g>
		<path style="fill-rule:evenodd;clip-rule:evenodd;fill:#FFD550;" d="M49.996,27.005c-8.466,0-15.633,5.542-18.087,13.193
			c1.724,1.039,3.6,2.078,5.368,3.117c1.238-5.89,6.46-10.312,12.718-10.312c7.179,0,12.998,5.819,12.998,12.999
			c0,4.816-2.626,9.011-6.518,11.256c1.051,2.022,3.09,2.744,4.804,4.003c4.672-3.461,7.714-8.998,7.714-15.258
			C68.994,35.511,60.488,27.005,49.996,27.005z"/>
	</g>
</g>
<path style="fill-rule:evenodd;clip-rule:evenodd;fill:#BEBEBE;" d="M55.002,78.998H17c-6.625,0-11.995-5.37-11.995-11.994
	c0-3.596,1.59-6.812,4.096-9.011c-0.068-0.654-0.105-1.316-0.105-1.988c0-10.493,8.506-18.999,18.999-18.999
	c5.032,0,9.595,1.971,12.994,5.164c0.672-0.086,1.353-0.146,2.048-0.146c8.028,0,14.656,5.918,15.809,13.625
	c4.737,1.603,8.152,6.075,8.152,11.354C66.998,73.627,61.627,78.998,55.002,78.998z M55.01,61.013h-2.422
	c0.294-0.942,0.453-1.945,0.453-2.984c0-5.525-4.479-10.005-10.006-10.005c-1.479,0-2.88,0.329-4.145,0.906
	c-2.317-3.564-6.328-5.927-10.897-5.927c-7.178,0-12.997,5.819-12.997,12.998c0,1.813,0.374,3.54,1.045,5.108
	C13.186,61.571,11,64.028,11,67.012c0,3.313,2.686,6,5.999,6H55.01c3.313,0,6-2.687,6-6C61.01,63.7,58.324,61.013,55.01,61.013z"/>
<path style="fill-rule:evenodd;clip-rule:evenodd;fill:#FFD550;" d="M31.61,29.032c-0.781,0.781-2.047,0.781-2.828,0l-4.243-4.242
	c-0.781-0.781-0.78-2.048,0-2.829l1.414-1.414c0.781-0.781,2.048-0.781,2.829,0l4.242,4.243c0.781,0.78,0.781,2.047,0,2.828
	L31.61,29.032z"/>
<path style="fill-rule:evenodd;clip-rule:evenodd;fill:#FFD550;" d="M50.995,21.002h-2c-1.104,0-2-0.896-2-2v-6c0-1.104,0.896-2,2-2
	h2c1.104,0,2,0.896,2,2v6C52.995,20.107,52.099,21.002,50.995,21.002z"/>
<path style="fill-rule:evenodd;clip-rule:evenodd;fill:#FFD550;" d="M71.208,29.032c-0.781,0.781-2.047,0.781-2.828,0l-1.414-1.414
	c-0.781-0.781-0.781-2.048,0-2.828l4.242-4.243c0.781-0.781,2.048-0.781,2.829,0l1.414,1.414c0.781,0.781,0.781,2.048,0,2.829
	L71.208,29.032z"/>
<path style="fill-rule:evenodd;clip-rule:evenodd;fill:#FFD550;" d="M82.995,49.002h-6c-1.104,0-2-0.896-2-2v-2c0-1.104,0.896-2,2-2
	h6c1.104,0,2,0.896,2,2v2C84.995,48.107,84.099,49.002,82.995,49.002z"/>
</svg>
