<?xml version="1.0" encoding="utf-8"?>
<!-- Generator: Adobe Illustrator 16.0.4, SVG Export Plug-In . SVG Version: 6.00 Build 0)  -->
<!DOCTYPE svg PUBLIC "-//W3C//DTD SVG 1.0//EN" "http://www.w3.org/TR/2001/REC-SVG-20010904/DTD/svg10.dtd">
<svg version="1.0" id="Layer_1" xmlns="http://www.w3.org/2000/svg" xmlns:xlink="http://www.w3.org/1999/xlink" x="0px" y="0px"
	 width="90px" height="90px" viewBox="0 0 90 90" style="enable-background:new 0 0 90 90;" xml:space="preserve">
<g>
	<g>
		<path style="fill-rule:evenodd;clip-rule:evenodd;fill:#BEBEBE;" d="M76.994,39.151c0-0.051,0.008-0.101,0.008-0.152
			c0-11.045-8.956-20-20.004-20c-2.099,0-4.121,0.327-6.021,0.925C46.966,15.67,41.295,13,34.986,13
			c-12.144,0-21.988,9.843-21.988,21.984c0,1.349,0.139,2.664,0.372,3.946C8.384,41.64,5,46.923,5,52.997
			c0,8.488,6.616,15.414,14.972,15.948c0.167,0.015,0.882,0.033,1.092,0.052h0.771c0.755-0.09,1.358-0.481,2.002-1.403
			c0.026-0.039,0.05-0.06,0.076-0.093c0.521-0.759,1.094-1.583,1.698-2.452c0.014-0.027,0.016-0.049,0.037-0.079
			c0.844-1.187-0.657-1.968-1.999-1.968c-0.015,0-0.02-0.004-0.033-0.005h-2.627c-5.518,0-9.99-4.472-9.99-9.987
			c0-5.516,4.473-9.987,9.99-9.987h0.189c-1.366-2.357-2.162-5.085-2.162-8.005c0-8.834,7.163-15.996,15.999-15.996
			c6.099,0,11.397,3.412,14.098,8.429C51.36,25.906,54.08,25,57.014,25C64.737,25,71,31.26,71,38.982
			c0,1.444-0.221,2.837-0.627,4.147c4.855,0.679,8.598,4.837,8.598,9.879c0,5.516-4.473,9.987-9.99,9.987h-6.163
			c-0.026,0.001-0.044,0.006-0.073,0.006c-1.681,0-2.23,0.601-2.614,1.384c-0.362,0.859-0.729,1.726-1.094,2.582
			c-0.48,1.131-0.405,2.014,1.289,2.028h8.671c8.839,0,16.004-7.164,16.004-16C85,47.076,81.775,41.919,76.994,39.151z"/>
	</g>
</g>
<path style="fill-rule:evenodd;clip-rule:evenodd;fill:#7CD5FF;" d="M42.729,56.014c0.552-0.955,0.225-2.175-0.73-2.726
	c-0.955-0.551-2.175-0.224-2.727,0.73c-0.551,0.955-10.604,15.086-11.707,16.995c-1.103,1.909-0.447,4.35,1.462,5.452
	c1.91,1.102,4.351,0.448,5.453-1.461C35.582,73.095,42.178,56.968,42.729,56.014z"/>
<path style="fill-rule:evenodd;clip-rule:evenodd;fill:#7CD5FF;" d="M56.716,56.014c0.551-0.955,0.224-2.175-0.73-2.726
	c-0.955-0.551-2.175-0.224-2.726,0.73c-0.552,0.955-10.605,15.086-11.707,16.995c-1.103,1.909-0.448,4.35,1.461,5.452
	s4.351,0.448,5.452-1.461C49.568,73.095,56.165,56.968,56.716,56.014z"/>
</svg>
