<?xml version="1.0" encoding="utf-8"?>
<!-- Generator: Adobe Illustrator 16.0.4, SVG Export Plug-In . SVG Version: 6.00 Build 0)  -->
<!DOCTYPE svg PUBLIC "-//W3C//DTD SVG 1.0//EN" "http://www.w3.org/TR/2001/REC-SVG-20010904/DTD/svg10.dtd">
<svg version="1.0" id="Layer_1" xmlns="http://www.w3.org/2000/svg" xmlns:xlink="http://www.w3.org/1999/xlink" x="0px" y="0px"
	 width="90px" height="90px" viewBox="0 0 90 90" style="enable-background:new 0 0 90 90;" xml:space="preserve">
<g>
	<g>
		<path style="fill-rule:evenodd;clip-rule:evenodd;fill:#BEBEBE;" d="M76.994,39.146c0-0.051,0.008-0.101,0.008-0.152
			c0-11.044-8.956-19.995-20.004-19.995c-2.098,0-4.12,0.326-6.021,0.926C46.966,15.67,41.294,13,34.986,13
			c-12.144,0-21.989,9.841-21.989,21.979c0,1.349,0.141,2.662,0.373,3.945C8.384,41.634,5,46.914,5,52.987
			c0,8.528,6.682,15.471,15.095,15.944c0.635-0.146,1.174-0.54,1.739-1.351c0.027-0.039,0.051-0.061,0.077-0.094
			c0.522-0.758,1.093-1.582,1.697-2.452c0.015-0.026,0.017-0.049,0.038-0.078c0.843-1.188-0.657-1.968-2-1.968
			c-0.015,0-0.02-0.005-0.032-0.005h-0.626c-5.518,0-9.99-4.471-9.99-9.984c0-5.515,4.473-9.985,9.99-9.985h0.189
			c-1.367-2.356-2.162-5.085-2.162-8.003c0-8.833,7.163-15.994,16-15.994c6.098,0,11.396,3.412,14.096,8.428
			c2.249-1.542,4.968-2.447,7.901-2.447C64.738,24.998,71,31.256,71,38.977c0,1.443-0.22,2.835-0.626,4.146
			c4.856,0.678,8.598,4.835,8.598,9.877c0,5.514-4.473,9.984-9.99,9.984h-0.331c-0.038,0.021-0.076,0.036-0.111,0.036
			c-0.83,0-1.501,1.343-1.501,3.001c0,1.526,0.572,2.772,1.31,2.962h0.649C77.835,68.983,85,61.822,85,52.987
			C85,47.067,81.775,41.911,76.994,39.146z"/>
	</g>
</g>
<path style="fill-rule:evenodd;clip-rule:evenodd;fill:#FFFFFF;" d="M63.371,60.936c-0.833,0.481-5.04,2.068-7.679,3.081
	c2.642,1.015,6.836,2.6,7.667,3.08c1.197,0.689,1.606,2.219,0.916,3.415s-2.22,1.605-3.417,0.916
	c-0.833-0.48-4.303-3.322-6.502-5.103c0.44,2.789,1.165,7.214,1.165,8.174c0,1.382-1.12,2.501-2.501,2.501s-2.502-1.119-2.502-2.501
	c0-0.96,0.726-5.386,1.169-8.18c-2.2,1.779-5.664,4.613-6.495,5.093c-1.197,0.69-2.726,0.281-3.417-0.915s-0.282-2.726,0.916-3.416
	c0.832-0.48,5.025-2.063,7.664-3.076c-2.641-1.015-6.831-2.597-7.662-3.078c-1.197-0.689-1.606-2.219-0.916-3.414
	c0.691-1.197,2.22-1.606,3.417-0.916c0.832,0.48,4.304,3.322,6.502,5.103c-0.441-2.791-1.165-7.215-1.165-8.175
	c0-1.381,1.12-2.501,2.502-2.501s2.501,1.12,2.501,2.501c0,0.96-0.727,5.387-1.169,8.181c2.201-1.78,5.672-4.62,6.505-5.1
	c1.196-0.691,2.727-0.281,3.417,0.915C64.977,58.716,64.566,60.245,63.371,60.936z"/>
<path style="fill-rule:evenodd;clip-rule:evenodd;fill:#7CD5FF;" d="M39.726,56.003c0.551-0.954,0.225-2.174-0.73-2.725
	s-2.175-0.224-2.727,0.729C35.718,54.963,25.665,69.091,24.562,71c-1.102,1.907-0.447,4.349,1.462,5.45
	c1.909,1.102,4.351,0.447,5.452-1.461C32.579,73.08,39.175,56.958,39.726,56.003z"/>
</svg>
